<?xml version="1.0" encoding="UTF-8" standalone="no"?>
<!-- Created with Inkscape (http://www.inkscape.org/) -->

<svg
   width="210mm"
   height="57mm"
   viewBox="0 0 210 57"
   version="1.1"
   id="svg5"
   sodipodi:docname="bitmap.svg"
   inkscape:version="1.2.2 (732a01da63, 2022-12-09, custom)"
   xmlns:inkscape="http://www.inkscape.org/namespaces/inkscape"
   xmlns:sodipodi="http://sodipodi.sourceforge.net/DTD/sodipodi-0.dtd"
   xmlns="http://www.w3.org/2000/svg"
   xmlns:svg="http://www.w3.org/2000/svg">
  <sodipodi:namedview
     id="namedview17"
     pagecolor="#ffffff"
     bordercolor="#000000"
     borderopacity="0.25"
     inkscape:showpageshadow="2"
     inkscape:pageopacity="0.0"
     inkscape:pagecheckerboard="0"
     inkscape:deskcolor="#d1d1d1"
     inkscape:document-units="mm"
     showgrid="false"
     inkscape:zoom="1.5749008"
     inkscape:cx="396.85039"
     inkscape:cy="107.94331"
     inkscape:window-width="1920"
     inkscape:window-height="1031"
     inkscape:window-x="0"
     inkscape:window-y="25"
     inkscape:window-maximized="1"
     inkscape:current-layer="svg5" />
  <defs
     id="defs2">
    <linearGradient
       id="linearGradient3887">
      <stop
         style="stop-color:#000000;stop-opacity:1;"
         offset="0"
         id="stop3885" />
    </linearGradient>
  </defs>
  <g
     id="layer1"
     transform="translate(2.1852817,-5.0414663)">
    <path
       style="fill:none;stroke-width:0.264583"
       id="path108"
       d="m 13.327418,26.784368 c 0.85258,-0.108413 1.713671,-0.123753 2.57175,-0.147867 1.570696,0.06186 3.107986,0.42845 4.663503,0.633952 1.541512,0.169897 3.080958,0.36409 4.623744,0.521544 2.913991,0.183171 5.833811,0.24352 8.750048,0.385453 3.107383,0.187687 6.221201,0.191291 9.330984,0.311039 2.084091,0.128161 4.170301,0.168735 6.257763,0.163838 2.122837,-0.02949 4.242618,0.08538 6.36365,0.147613 1.94047,-5.29e-4 3.870905,0.106948 5.800871,0.302647 3.324518,0.445725 6.642256,0.942178 9.964388,1.40648 3.318676,0.479456 6.62391,1.042744 9.968645,1.306113 1.974255,0.08064 3.953817,0.171892 5.930424,0.122338 1.149098,-0.02881 1.953281,-0.09939 3.102049,-0.180999 2.777006,-0.195453 5.53916,-0.530934 8.304837,-0.838983 0.300368,-0.0315 0.600733,-0.06299 0.901102,-0.09449 0,0 -3.089704,-2.187059 -3.089704,-2.187059 v 0 c -0.286806,0.04134 -0.573611,0.08267 -0.860417,0.124013 -2.723245,0.382434 -5.455507,0.684199 -8.198342,0.888473 -1.249034,0.07804 -1.855293,0.129884 -3.1012,0.153022 -1.982255,0.03681 -3.966099,-0.05084 -5.944137,-0.169558 -3.294711,-0.264396 -6.565117,-0.73296 -9.831673,-1.232416 -3.372757,-0.493752 -6.739107,-1.031732 -10.115039,-1.502693 -1.005197,-0.112425 -1.364351,-0.16445 -2.341261,-0.231392 -1.179087,-0.08079 -2.361123,-0.0535 -3.541601,-0.09569 -2.102917,-0.05964 -4.205576,-0.106064 -6.309551,-0.09928 -2.076122,-0.04445 -4.151857,-0.102578 -6.227884,-0.150776 -3.088045,-0.05844 -6.176584,-0.101863 -9.26144,-0.268193 -2.973697,-0.133592 -5.954836,-0.213611 -8.915743,-0.535609 -1.53992,-0.17411 -3.082379,-0.327798 -4.618828,-0.53083 -1.574254,-0.217681 -3.136525,-0.567862 -4.729591,-0.608905 -0.89427,0.01135 -1.788415,0.03829 -2.679371,0.121205 0,0 3.232024,2.287015 3.232024,2.287015 z" />
    <path
       style="fill:#000000;stroke-width:0.264583"
       id="path1001"
       d="m 0.4923465,15.037882 c 0.5954903,-1.032699 1.3482974,-1.957647 2.1746405,-2.812335 0.3387222,-0.297834 0.7854865,-0.816089 1.3107654,-0.668492 0.3413834,0.09593 0.4891556,0.337077 0.7303632,0.586225 1.5279325,1.972028 2.8584956,4.089334 4.419224,6.035511 4.498e-4,5.56e-4 0.00122,-7.4e-5 7.673e-4,-6.35e-4 v 0 C 7.5673695,16.231966 6.2368043,14.114623 4.7088342,12.142585 4.467263,11.893105 4.3196107,11.652017 3.9777778,11.556056 3.4521722,11.408505 3.0052184,11.926761 2.6662681,12.224852 c -0.8263895,0.85474 -1.5792433,1.77974 -2.1747694,2.8125 -3.7571e-4,6.09e-4 4.736e-4,0.0011 8.4667e-4,5.29e-4 z" />
    <path
       style="fill:#000000;stroke-width:0.264583"
       id="path1003"
       d="m 11.690243,20.403272 c 0.902225,0.877632 1.967031,1.563037 3.113641,2.077217 0.354393,0.158922 0.720195,0.291069 1.080293,0.436603 1.551015,0.544045 3.177872,0.909947 4.832585,0.819004 1.114915,-0.06127 1.858127,-0.251557 2.948238,-0.47076 2.581217,-0.606842 5.010465,-1.688405 7.515103,-2.536017 1.359614,-0.470913 2.744676,-0.862958 4.127394,-1.259107 0.846101,-0.242312 0.431874,-0.125867 1.242536,-0.349861 7.94e-4,-1.89e-4 5.29e-4,-0.0012 -2.64e-4,-9.53e-4 v 0 c -0.810673,0.223997 -0.396441,0.107551 -1.242547,0.349864 -1.382731,0.396153 -2.767809,0.788202 -4.127437,1.259122 -2.504598,0.847599 -4.933807,1.929141 -7.514979,2.535983 -1.089998,0.219183 -1.833229,0.409466 -2.948024,0.470741 -1.654591,0.09095 -3.281327,-0.274931 -4.832228,-0.818931 -0.360074,-0.145524 -0.725852,-0.277662 -1.080222,-0.436572 -1.146513,-0.514132 -2.21123,-1.199473 -3.113379,-2.077029 -5.03e-4,-5.03e-4 -0.0012,2.07e-4 -7.15e-4,7.14e-4 z" />
    <path
       style="fill:#000000;stroke-width:0.264583"
       id="path1005"
       d="m 39.053992,18.835018 c 0.62919,0.723458 1.145728,1.537132 1.556536,2.401653 0.157593,0.326804 0.276225,0.668564 0.386992,1.013162 2.17e-4,6.61e-4 0.0011,3.7e-4 0.0011,-3.18e-4 v 0 c -0.110784,-0.344638 -0.229428,-0.686441 -0.387041,-1.013285 -0.410863,-0.86462 -0.927457,-1.678393 -1.556731,-2.401929 -5.29e-4,-5.03e-4 -0.0013,2.04e-4 -7.94e-4,7.14e-4 z" />
    <path
       style="fill:#000000;stroke-width:0.264583"
       id="path1007"
       d="m 40.872571,22.748119 c -0.07146,-0.06454 -0.142928,-0.129071 -0.214392,-0.193606 -5.29e-4,-4.77e-4 -0.0013,2.64e-4 -7.94e-4,7.4e-4 v 0 c 0.07145,0.06452 0.142907,0.129048 0.214358,0.193572 5.29e-4,5.03e-4 0.0013,-2.08e-4 7.93e-4,-7.14e-4 z" />
    <path
       style="fill:#e9dcdc;fill-opacity:1;stroke:#000000;stroke-width:0.264583;stroke-opacity:1"
       id="path1051"
       d="M 86.219483,33.841406 C 83.95737,32.23239 81.32919,31.249428 78.74779,30.28608 c -3.085481,-1.047686 -6.258753,-1.979703 -9.5237,-2.241695 -2.518043,-0.202057 -3.376179,-0.05734 -5.907281,0.09903 -2.84661,0.259733 -5.627317,0.921281 -8.405852,1.557337 -0.845966,0.193659 -1.685661,0.417089 -2.53787,0.581115 -2.592475,0.49898 -2.720676,0.425553 -5.334394,0.594516 -2.655187,0.104987 -5.322332,-0.177864 -7.834554,-1.075317 -1.29649,-0.463151 -1.655188,-0.703506 -2.850189,-1.331725 -1.078897,-0.570272 -2.01536,-1.37294 -3.07377,-1.974993 -0.273431,-0.155536 -0.54927,-0.315406 -0.847844,-0.414449 -0.855525,-0.283796 -1.183281,-0.171458 -2.089317,-0.118456 -2.512899,0.31601 -4.973989,1.621398 -7.538228,1.487067 -0.596395,-0.03124 -1.180158,-0.184057 -1.770237,-0.276086 -0.632584,-0.235791 -1.288568,-0.416415 -1.89775,-0.707374 -2.819927,-1.346863 -5.08068,-3.662443 -6.970189,-6.102207 -0.364249,-0.470326 -0.691062,-0.968488 -1.036594,-1.452731 -0.148001,-0.207304 -0.441173,0.002 -0.293171,0.209306 v 0 c 0.350772,0.491054 0.682529,0.996262 1.052314,1.473162 1.929219,2.488047 4.240684,4.845258 7.122441,6.210232 0.631947,0.29933 1.312172,0.483771 1.968257,0.725656 0.615733,0.09319 1.225214,0.24881 1.847199,0.279573 2.600767,0.128631 5.004321,-1.151185 7.538728,-1.487099 0.795528,-0.05457 1.153996,-0.163773 1.908789,0.08279 0.285451,0.09325 0.54942,0.244942 0.810458,0.393394 1.067716,0.607211 2.011889,1.417877 3.101451,1.99114 1.22301,0.641437 1.586445,0.884981 2.913285,1.357564 2.553652,0.909542 5.264092,1.19697 7.96226,1.090012 2.646735,-0.172606 2.768936,-0.09808 5.391456,-0.602845 0.852199,-0.164029 1.691892,-0.387427 2.537844,-0.58111 2.759432,-0.631783 5.520862,-1.289717 8.347779,-1.548948 2.495896,-0.155453 3.354448,-0.29944 5.836681,-0.101586 3.238437,0.25813 6.385714,1.18378 9.446083,2.222222 2.542527,0.948319 5.129914,1.91521 7.363251,3.491391 0.193437,0.165717 0.427794,-0.107844 0.234357,-0.27356 z" />
    <path
       style="fill:#e9dcdc;fill-opacity:1;stroke:#000000;stroke-width:0.264583;stroke-opacity:1"
       id="path1051-7"
       d="m 119.73553,33.838705 c 2.26213,-1.609016 4.89032,-2.591978 7.47174,-3.555326 3.0855,-1.047686 6.25878,-1.979703 9.52373,-2.241695 2.51804,-0.202057 3.37618,-0.05734 5.90728,0.09903 2.84661,0.259733 5.62732,0.921281 8.40585,1.557337 0.84597,0.193659 1.68566,0.417089 2.53787,0.581115 2.59248,0.49898 2.72068,0.425553 5.3344,0.594516 2.65518,0.104987 5.32233,-0.177864 7.83455,-1.075317 1.29649,-0.463151 1.65519,-0.703506 2.85019,-1.331725 1.0789,-0.570272 2.01536,-1.37294 3.07377,-1.974993 0.27343,-0.155536 0.54927,-0.315406 0.84784,-0.414449 0.85553,-0.283796 1.18328,-0.171458 2.08932,-0.118456 2.5129,0.31601 4.97399,1.621398 7.53823,1.487067 0.5964,-0.03124 1.18016,-0.184057 1.77024,-0.276086 0.63258,-0.235791 1.28857,-0.416415 1.89775,-0.707374 2.81993,-1.346863 5.08068,-3.662443 6.97019,-6.102207 0.36425,-0.470326 0.69106,-0.968488 1.03659,-1.452731 0.148,-0.207304 0.44117,0.002 0.29317,0.209306 v 0 c -0.35077,0.491054 -0.68253,0.996262 -1.05231,1.473162 -1.92922,2.488047 -4.24069,4.845258 -7.12244,6.210232 -0.63195,0.29933 -1.31217,0.483771 -1.96826,0.725656 -0.61573,0.09319 -1.22521,0.24881 -1.8472,0.279573 -2.60077,0.128631 -5.00432,-1.151185 -7.53873,-1.487099 -0.79553,-0.05457 -1.154,-0.163773 -1.90879,0.08279 -0.28545,0.09325 -0.54942,0.244942 -0.81046,0.393394 -1.06771,0.607211 -2.01189,1.417877 -3.10145,1.99114 -1.22301,0.641437 -1.58644,0.884981 -2.91328,1.357564 -2.55365,0.909542 -5.26409,1.19697 -7.96226,1.090012 -2.64674,-0.172606 -2.76894,-0.09808 -5.39146,-0.602845 -0.8522,-0.164029 -1.69189,-0.387427 -2.53784,-0.58111 -2.75943,-0.631783 -5.52086,-1.289717 -8.34778,-1.548948 -2.4959,-0.155453 -3.35445,-0.29944 -5.83668,-0.101586 -3.23844,0.25813 -6.38573,1.18378 -9.44612,2.222222 -2.54254,0.948319 -5.12994,1.91521 -7.3633,3.491391 -0.19343,0.165717 -0.4278,-0.107844 -0.23435,-0.27356 z" />
    <path
       style="fill:#e9dcdc;fill-opacity:1;fill-rule:nonzero;stroke:#000000;stroke-width:0.171782;stroke-dasharray:none;stroke-opacity:1"
       id="path3891"
       d="M 42.050276,9.8878363 38.479332,6.309671 42.057497,2.7387268 45.628441,6.3168921 Z"
       transform="matrix(1.5686858,0,0,1.5170442,37.435293,24.958471)" />
    <path
       style="fill:#e9dcdc;fill-opacity:1;stroke:#000000;stroke-width:0.249569;stroke-opacity:1"
       id="path3891-5"
       d="M 42.050276,9.8878363 38.479332,6.309671 42.057497,2.7387268 45.628441,6.3168921 Z"
       transform="matrix(1.0686879,0,0,1.0517048,68.945311,27.899069)" />
    <path
       style="fill:#e9dcdc;fill-opacity:1;stroke:#000000;stroke-width:0.249569;stroke-opacity:1"
       id="path3891-5-3"
       d="M 42.050276,9.8878363 38.479332,6.309671 42.057497,2.7387268 45.628441,6.3168921 Z"
       transform="matrix(1.0686879,0,0,1.0517048,47.989704,27.880049)" />
  </g>
</svg>
