<?xml version="1.0" encoding="UTF-8" standalone="no"?>
<!-- Created with Inkscape (http://www.inkscape.org/) -->

<svg
   width="256mm"
   height="200.633mm"
   viewBox="0 0 256 200.63245"
   version="1.1"
   id="svg4761"
   inkscape:version="1.2.2 (732a01da63, 2022-12-09, custom)"
   sodipodi:docname="logo2.svg"
   xmlns:inkscape="http://www.inkscape.org/namespaces/inkscape"
   xmlns:sodipodi="http://sodipodi.sourceforge.net/DTD/sodipodi-0.dtd"
   xmlns="http://www.w3.org/2000/svg"
   xmlns:svg="http://www.w3.org/2000/svg">
  <sodipodi:namedview
     id="namedview4763"
     pagecolor="#ffffff"
     bordercolor="#000000"
     borderopacity="0.25"
     inkscape:showpageshadow="2"
     inkscape:pageopacity="0.0"
     inkscape:pagecheckerboard="0"
     inkscape:deskcolor="#d1d1d1"
     inkscape:document-units="mm"
     showgrid="false"
     inkscape:zoom="1.0733976"
     inkscape:cx="393.14416"
     inkscape:cy="561.76761"
     inkscape:window-width="1920"
     inkscape:window-height="1031"
     inkscape:window-x="0"
     inkscape:window-y="25"
     inkscape:window-maximized="1"
     inkscape:current-layer="layer1" />
  <defs
     id="defs4758">
    <rect
       x="190.24892"
       y="607.61804"
       width="789.073"
       height="105.27144"
       id="rect360" />
    <inkscape:path-effect
       effect="simplify"
       id="path-effect17272"
       is_visible="true"
       lpeversion="1"
       steps="1"
       threshold="0.00172414"
       smooth_angles="360"
       helper_size="0"
       simplify_individual_paths="false"
       simplify_just_coalesce="false" />
    <inkscape:path-effect
       effect="powerstroke"
       id="path-effect14734"
       is_visible="true"
       lpeversion="1"
       offset_points="1.111943,5.2288731"
       not_jump="true"
       sort_points="true"
       interpolator_type="CentripetalCatmullRom"
       interpolator_beta="0.75"
       start_linecap_type="round"
       linejoin_type="spiro"
       miter_limit="4"
       scale_width="1"
       end_linecap_type="round" />
    <inkscape:path-effect
       effect="simplify"
       id="path-effect14732"
       is_visible="true"
       lpeversion="1"
       steps="1"
       threshold="0.0047745358"
       smooth_angles="0"
       helper_size="0"
       simplify_individual_paths="false"
       simplify_just_coalesce="false"
       step="1" />
    <inkscape:path-effect
       effect="bspline"
       id="path-effect12061"
       is_visible="true"
       lpeversion="1"
       weight="33.333333"
       steps="2"
       helper_size="0"
       apply_no_weight="true"
       apply_with_weight="true"
       only_selected="false" />
    <inkscape:path-effect
       effect="bspline"
       id="path-effect12049"
       is_visible="true"
       lpeversion="1"
       weight="33.333333"
       steps="2"
       helper_size="0"
       apply_no_weight="true"
       apply_with_weight="true"
       only_selected="false" />
    <inkscape:path-effect
       effect="bspline"
       id="path-effect11269"
       is_visible="true"
       lpeversion="1"
       weight="33.333333"
       steps="2"
       helper_size="0"
       apply_no_weight="true"
       apply_with_weight="true"
       only_selected="false" />
    <inkscape:path-effect
       effect="bspline"
       id="path-effect11265"
       is_visible="true"
       lpeversion="1"
       weight="33.333333"
       steps="2"
       helper_size="0"
       apply_no_weight="true"
       apply_with_weight="true"
       only_selected="false" />
    <inkscape:path-effect
       effect="bspline"
       id="path-effect8396"
       is_visible="true"
       lpeversion="1"
       weight="33.333333"
       steps="2"
       helper_size="0"
       apply_no_weight="true"
       apply_with_weight="true"
       only_selected="false" />
    <inkscape:path-effect
       effect="bspline"
       id="path-effect8396-6"
       is_visible="true"
       lpeversion="1"
       weight="33.333333"
       steps="2"
       helper_size="0"
       apply_no_weight="true"
       apply_with_weight="true"
       only_selected="false" />
    <inkscape:path-effect
       effect="bspline"
       id="path-effect8396-9"
       is_visible="true"
       lpeversion="1"
       weight="33.333333"
       steps="2"
       helper_size="0"
       apply_no_weight="true"
       apply_with_weight="true"
       only_selected="false" />
    <inkscape:path-effect
       effect="bspline"
       id="path-effect8396-6-2"
       is_visible="true"
       lpeversion="1"
       weight="33.333333"
       steps="2"
       helper_size="0"
       apply_no_weight="true"
       apply_with_weight="true"
       only_selected="false" />
    <inkscape:path-effect
       effect="bspline"
       id="path-effect12049-9"
       is_visible="true"
       lpeversion="1"
       weight="33.333333"
       steps="2"
       helper_size="0"
       apply_no_weight="true"
       apply_with_weight="true"
       only_selected="false" />
    <inkscape:path-effect
       effect="bspline"
       id="path-effect12049-9-1"
       is_visible="true"
       lpeversion="1"
       weight="33.333333"
       steps="2"
       helper_size="0"
       apply_no_weight="true"
       apply_with_weight="true"
       only_selected="false" />
    <inkscape:path-effect
       effect="bspline"
       id="path-effect12049-4"
       is_visible="true"
       lpeversion="1"
       weight="33.333333"
       steps="2"
       helper_size="0"
       apply_no_weight="true"
       apply_with_weight="true"
       only_selected="false" />
    <inkscape:path-effect
       effect="bspline"
       id="path-effect12049-9-7"
       is_visible="true"
       lpeversion="1"
       weight="33.333333"
       steps="2"
       helper_size="0"
       apply_no_weight="true"
       apply_with_weight="true"
       only_selected="false" />
    <inkscape:path-effect
       effect="bspline"
       id="path-effect12049-9-1-8"
       is_visible="true"
       lpeversion="1"
       weight="33.333333"
       steps="2"
       helper_size="0"
       apply_no_weight="true"
       apply_with_weight="true"
       only_selected="false" />
    <inkscape:path-effect
       effect="bspline"
       id="path-effect12061-4"
       is_visible="true"
       lpeversion="1"
       weight="33.333333"
       steps="2"
       helper_size="0"
       apply_no_weight="true"
       apply_with_weight="true"
       only_selected="false" />
    <inkscape:path-effect
       effect="bspline"
       id="path-effect12049-1"
       is_visible="true"
       lpeversion="1"
       weight="33.333333"
       steps="2"
       helper_size="0"
       apply_no_weight="true"
       apply_with_weight="true"
       only_selected="false" />
    <inkscape:path-effect
       effect="bspline"
       id="path-effect12049-49"
       is_visible="true"
       lpeversion="1"
       weight="33.333333"
       steps="2"
       helper_size="0"
       apply_no_weight="true"
       apply_with_weight="true"
       only_selected="false" />
    <inkscape:path-effect
       effect="bspline"
       id="path-effect12049-9-2"
       is_visible="true"
       lpeversion="1"
       weight="33.333333"
       steps="2"
       helper_size="0"
       apply_no_weight="true"
       apply_with_weight="true"
       only_selected="false" />
    <inkscape:path-effect
       effect="bspline"
       id="path-effect12049-9-1-0"
       is_visible="true"
       lpeversion="1"
       weight="33.333333"
       steps="2"
       helper_size="0"
       apply_no_weight="true"
       apply_with_weight="true"
       only_selected="false" />
    <inkscape:path-effect
       effect="bspline"
       id="path-effect12061-6"
       is_visible="true"
       lpeversion="1"
       weight="33.333333"
       steps="2"
       helper_size="0"
       apply_no_weight="true"
       apply_with_weight="true"
       only_selected="false" />
    <inkscape:path-effect
       effect="bspline"
       id="path-effect12049-9-7-9"
       is_visible="true"
       lpeversion="1"
       weight="33.333333"
       steps="2"
       helper_size="0"
       apply_no_weight="true"
       apply_with_weight="true"
       only_selected="false" />
    <inkscape:path-effect
       effect="bspline"
       id="path-effect12049-9-1-8-5"
       is_visible="true"
       lpeversion="1"
       weight="33.333333"
       steps="2"
       helper_size="0"
       apply_no_weight="true"
       apply_with_weight="true"
       only_selected="false" />
    <inkscape:path-effect
       effect="bspline"
       id="path-effect12061-4-0"
       is_visible="true"
       lpeversion="1"
       weight="33.333333"
       steps="2"
       helper_size="0"
       apply_no_weight="true"
       apply_with_weight="true"
       only_selected="false" />
    <inkscape:path-effect
       effect="bspline"
       id="path-effect12049-1-4"
       is_visible="true"
       lpeversion="1"
       weight="33.333333"
       steps="2"
       helper_size="0"
       apply_no_weight="true"
       apply_with_weight="true"
       only_selected="false" />
    <inkscape:path-effect
       effect="simplify"
       id="path-effect17272-2"
       is_visible="true"
       lpeversion="1"
       steps="1"
       threshold="0.00172414"
       smooth_angles="360"
       helper_size="0"
       simplify_individual_paths="false"
       simplify_just_coalesce="false" />
    <inkscape:path-effect
       effect="simplify"
       id="path-effect17272-2-2"
       is_visible="true"
       lpeversion="1"
       steps="1"
       threshold="0.00172414"
       smooth_angles="360"
       helper_size="0"
       simplify_individual_paths="false"
       simplify_just_coalesce="false" />
    <inkscape:path-effect
       effect="simplify"
       id="path-effect17272-9"
       is_visible="true"
       lpeversion="1"
       steps="1"
       threshold="0.00172414"
       smooth_angles="360"
       helper_size="0"
       simplify_individual_paths="false"
       simplify_just_coalesce="false" />
    <inkscape:path-effect
       effect="simplify"
       id="path-effect17272-2-4"
       is_visible="true"
       lpeversion="1"
       steps="1"
       threshold="0.00172414"
       smooth_angles="360"
       helper_size="0"
       simplify_individual_paths="false"
       simplify_just_coalesce="false" />
    <inkscape:path-effect
       effect="simplify"
       id="path-effect17272-2-2-9"
       is_visible="true"
       lpeversion="1"
       steps="1"
       threshold="0.00172414"
       smooth_angles="360"
       helper_size="0"
       simplify_individual_paths="false"
       simplify_just_coalesce="false" />
  </defs>
  <g
     inkscape:label="Layer 1"
     inkscape:groupmode="layer"
     id="layer1">
    <path
       style="fill:#e9dcdc;stroke:#000000;stroke-width:1.47;stroke-dasharray:none"
       id="path5233"
       d="m 71.510424,42.603538 c 4.83054,2.92079 10.345528,4.41548 15.811341,5.62124 7.141437,1.57541 9.031915,1.69329 16.354105,2.72313 6.51142,0.75676 13.08064,1.284239 19.64298,1.140949 2.49125,-0.0544 4.59055,-0.18968 6.97956,-0.802969 0.77152,-0.19806 1.50415,-0.52482 2.25622,-0.78723 1.30664,-0.68028 2.74644,-1.46003 3.62693,-2.70378 0.10715,-0.15136 0.29341,-0.37117 0.18787,-0.52365 -0.483,-0.69775 -1.56206,0.61822 -1.61325,0.66048 -0.51272,0.53498 -1.05624,1.04206 -1.53817,1.60494 -1.56034,1.82242 -4.1171,5.206599 -5.46552,7.031199 -3.12474,4.22819 -4.10317,5.55329 -6.88379,10.255467 -1.22818,2.076924 -2.35294,4.213294 -3.52941,6.319944 -6.86197,12.65145 -11.70201,26.20859 -16.29919,39.801512 -2.61066,7.81383 -4.77427,15.76761 -7.298318,23.60753 -0.07805,0.24246 0.264834,0.35285 0.342889,0.11039 v 0 c 2.523279,-7.83833 4.686989,-15.79022 7.296659,-23.60252 4.59007,-13.572102 9.42165,-27.108882 16.27247,-39.741292 1.17331,-2.10133 2.29514,-4.23225 3.51995,-6.303987 2.77449,-4.692924 3.74642,-6.008244 6.86604,-10.229754 1.33675,-1.8089 3.88922,-5.187509 5.43839,-6.999349 0.4738,-0.55414 1.00809,-1.05355 1.51213,-1.58032 0.26953,-0.24006 0.55446,-0.46385 0.80857,-0.72016 0.0932,-0.094 0.11096,-0.38732 0.22792,-0.32529 0.11884,0.063 -0.0303,0.27916 -0.10828,0.38875 -0.85128,1.19592 -2.22075,1.95453 -3.48285,2.60988 -0.73456,0.25773 -1.44985,0.5789 -2.20367,0.7732 -2.36617,0.60988 -4.44068,0.74271 -6.9103,0.7968 -6.54651,0.143389 -13.09994,-0.38269 -19.59567,-1.13745 -7.3193,-1.02901 -9.178494,-1.14274 -16.316415,-2.71577 -5.412132,-1.1927 -10.865649,-2.67144 -15.660071,-5.5413 -0.190499,-0.16908 -0.429619,0.10032 -0.23912,0.26941 z" />
    <path
       style="fill:#e9dcdc;stroke:#000000;stroke-width:1.47;stroke-dasharray:none"
       id="path5386"
       d="m 75.694442,92.226248 c 3.899728,-2.25263 8.113074,-3.87695 12.505946,-4.87219 1.327539,-0.30077 2.675975,-0.50042 4.013962,-0.75063 4.37291,-0.65005 8.79265,-0.59714 13.19583,-0.43432 1.55517,0.0575 3.10778,0.17719 4.66329,0.22451 1.72849,0.0526 3.45999,0.15718 5.18734,0.0752 1.97126,-0.0936 3.92658,-0.40064 5.88987,-0.60096 6.63654,-1.14968 12.81535,-3.7549 18.68485,-6.98663 1.69694,-0.93433 3.31325,-2.00815 4.96988,-3.01223 0.21781,-0.13205 0.0311,-0.44008 -0.18674,-0.30804 v 0 c -1.6484,0.99952 -3.25671,2.06836 -4.94519,2.99856 -5.83018,3.21186 -11.9671,5.80414 -18.55944,6.94998 -1.94934,0.19971 -3.89069,0.50603 -5.84802,0.59914 -1.72331,0.082 -3.45077,-0.0223 -5.17523,-0.0748 -1.55824,-0.0474 -3.11357,-0.16733 -4.67148,-0.22482 -4.42844,-0.16341 -8.87346,-0.21506 -13.271225,0.44036 -1.347168,0.2523 -2.704872,0.45371 -4.041505,0.75691 -4.428635,1.00459 -8.676539,2.64409 -12.607147,4.91712 -0.214162,0.13789 -0.01916,0.44076 0.195009,0.30286 z" />
    <path
       style="fill:#e9dcdc;stroke:#000000;stroke-width:1.47;stroke-dasharray:none"
       id="path5422"
       d="m 152.58624,56.892997 c 2.72636,-0.0663 5.4654,0.13465 8.18718,-0.0906 0.60426,-0.05 1.20389,-0.1455 1.80583,-0.21826 3.63317,-0.82491 6.54468,-3.13936 9.26543,-5.562889 2.07834,-1.91448 3.71454,-3.67 4.49722,-6.42458 0.16264,-0.76753 0.23182,-1.81584 -0.78577,-1.97383 -0.61196,-0.095 -1.10203,0.18146 -1.66053,0.38072 -0.43093,0.28842 -0.88016,0.55121 -1.2928,0.86525 -1.03036,0.78416 -1.97799,1.70685 -2.88904,2.62154 -1.51231,1.51838 -2.79164,2.99821 -4.1162,4.68013 -0.42648,0.62937 -0.8908,1.234689 -1.27943,1.888109 -1.11379,1.87261 -2.03966,3.9082 -2.93385,5.88756 -1.53975,3.40834 -2.94442,6.869673 -4.33465,10.340731 -3.07677,7.63155 -5.53046,15.49418 -8.55681,23.14522 -0.78725,1.99027 -1.6312,3.95765 -2.44679,5.93648 -3.05915,6.830802 -6.85444,13.279092 -10.97457,19.515282 -2.30554,3.48964 -5.14385,7.51946 -7.75685,10.83947 -0.98592,1.2527 -2.04808,2.44345 -3.07213,3.66518 -2.35143,1.98055 -3.41582,3.17655 -6.17843,4.44003 -1.27591,0.58354 -4.10602,1.39605 -5.56025,0.75771 -1.50219,-0.65941 -1.93951,-2.1885 -2.29995,-3.53249 -0.14056,-2.43328 0.45454,-5.04948 1.2257,-7.35895 0.36328,-1.08794 1.76447,-1.9969 2.97393,-2.45698 0.60361,-0.22961 1.28358,-0.14371 1.92538,-0.21557 1.07075,0.18447 2.15073,0.3217 3.21226,0.55341 1.59828,0.34887 3.17377,0.79506 4.76198,1.18722 3.99212,0.98573 11.31969,2.78062 15.07902,3.64894 9.95743,2.29994 7.9715,1.82068 17.89807,3.65728 8.75078,1.10961 18.3065,2.25122 26.44829,-2.08344 3.19472,-1.70085 3.53217,-2.55077 5.68107,-5.11327 0.2987,-0.87887 0.82308,-1.71124 0.89611,-2.63661 0.179,-2.2682 -0.99967,-3.5461 -2.78657,-4.78476 -3.56951,-2.47433 -7.96984,-3.05 -12.12505,-3.73065 -3.1538,-0.24003 -3.63881,-0.38082 -6.60245,-0.25672 -1.12112,0.047 -2.20799,0.24011 -3.32223,0.31014 -0.2542,0.0162 -0.2313,0.37568 0.0229,0.35949 v 0 c 1.10663,-0.0714 2.18975,-0.26236 3.30235,-0.30942 2.93575,-0.12418 3.41521,0.0152 6.54129,0.25201 4.12038,0.67258 8.3622,1.23151 11.93176,3.63311 1.66513,1.1203 2.84053,2.29535 2.69642,4.4124 -0.0601,0.88245 -0.55396,1.68001 -0.83094,2.52001 -2.08954,2.50897 -2.41693,3.34127 -5.53914,5.01009 -8.07338,4.31524 -17.56827,3.15785 -26.24828,2.06341 -9.91538,-1.83426 -7.93009,-1.35526 -17.87975,-3.65339 -3.78575,-0.87442 -11.06258,-2.65757 -15.07577,-3.64815 -1.5971,-0.39421 -3.18071,-0.846 -4.78877,-1.19283 -1.09619,-0.23642 -2.21199,-0.37041 -3.31799,-0.55561 -0.70404,0.0992 -1.45498,0.0261 -2.11212,0.29749 -1.26297,0.52166 -2.75773,1.43208 -3.14213,2.58715 -0.78966,2.37282 -1.36594,5.3182 -1.20282,7.81696 0.22218,0.7583 0.75518,1.87064 1.15939,2.5496 0.8352,1.40289 3.01227,1.2598 4.54992,1.06202 3.48946,-0.44884 6.48207,-3.16905 8.98288,-5.35825 1.02814,-1.22689 2.09449,-2.42276 3.08442,-3.68068 2.61735,-3.3259 5.46325,-7.36643 7.7725,-10.86215 4.13135,-6.25399 7.93665,-12.72083 11.00358,-19.571222 0.81694,-1.98223 1.66224,-3.953 2.45082,-5.94667 3.02538,-7.64878 5.47861,-15.50896 8.55415,-23.13837 1.38775,-3.464981 2.79015,-6.920081 4.32681,-10.322621 0.88042,-1.94945 1.80854,-3.99106 2.90553,-5.83758 0.38392,-0.64623 0.84282,-1.24487 1.26422,-1.867299 2.35661,-2.9947 4.94843,-5.92363 8.13829,-8.05128 0.32606,-0.12147 1.37786,-0.60455 1.79992,-0.30364 0.43461,0.30987 0.23974,1.06491 0.17644,1.4604 -0.7447,2.65469 -2.3884,4.4162 -4.3902,6.25353 -2.66427,2.375009 -5.51414,4.652469 -9.06911,5.474229 -0.59316,0.072 -1.18401,0.1666 -1.77948,0.21604 -2.71605,0.2255 -5.44955,0.0234 -8.17021,0.0902 -0.25471,0 -0.25471,0.36022 0,0.36022 z"
       sodipodi:nodetypes="cscccscssccscscsscsscsscssscscsscccssscsccscsssccscsscsscccssccscccscc" />
    <path
       style="fill:none;fill-rule:evenodd;stroke:#000000;stroke-width:1.47;stroke-linecap:butt;stroke-linejoin:miter;stroke-dasharray:none;stroke-opacity:1"
       d="m 150.06033,90.353021 v 0"
       id="path6335"
       inkscape:connector-type="polyline"
       inkscape:connector-curvature="0"
       inkscape:connection-start="#path5422"
       inkscape:connection-end="#path5422" />
    <path
       sodipodi:type="spiral"
       style="fill:#d6d6d6;fill-opacity:1;fill-rule:evenodd;stroke:#000000;stroke-width:5.55591;stroke-dasharray:none;stroke-dashoffset:0"
       id="path7025"
       sodipodi:cx="56.92511"
       sodipodi:cy="175.53711"
       sodipodi:expansion="1"
       sodipodi:revolution="2.2580562"
       sodipodi:radius="38.543659"
       sodipodi:argument="-72.218636"
       sodipodi:t0="0"
       d="m 56.92511,175.53711 c -2.565644,-0.0975 -1.13433,-3.50656 0.162101,-4.26427 3.513248,-2.05336 7.44038,1.24464 8.366438,4.58847 1.656501,5.98133 -3.334123,11.48699 -9.014842,12.46861 -8.336683,1.44057 -15.606731,-5.43505 -16.570775,-13.44121 -1.284919,-10.67097 7.537809,-19.75484 17.867583,-20.67295 12.998966,-1.15535 23.917034,9.64091 24.775112,22.29396 1.039249,15.32452 -11.744095,28.08729 -26.720324,28.87728 -17.648967,0.93097 -32.262592,-13.84732 -32.97945,-31.1467 -0.82764,-19.97282 15.950553,-36.44126 35.573065,-37.08162 0.65045,-0.0212 1.301439,-0.0259 1.952125,-0.014"
       transform="matrix(0.26458333,0,0,0.26458333,-5.0554753,-35.0444)" />
    <path
       sodipodi:type="spiral"
       style="fill:#d6d6d6;fill-opacity:1;fill-rule:evenodd;stroke:#000000;stroke-width:5.55591;stroke-dasharray:none;stroke-dashoffset:0"
       id="path7025-2"
       sodipodi:cx="56.92511"
       sodipodi:cy="175.53711"
       sodipodi:expansion="1"
       sodipodi:revolution="2.2580562"
       sodipodi:radius="38.543659"
       sodipodi:argument="-72.218636"
       sodipodi:t0="0"
       d="m 56.92511,175.53711 c -2.565644,-0.0975 -1.13433,-3.50656 0.162101,-4.26427 3.513248,-2.05336 7.44038,1.24464 8.366438,4.58847 1.656501,5.98133 -3.334123,11.48699 -9.014842,12.46861 -8.336683,1.44057 -15.606731,-5.43505 -16.570775,-13.44121 -1.284919,-10.67097 7.537809,-19.75484 17.867583,-20.67295 12.998966,-1.15535 23.917034,9.64091 24.775112,22.29396 1.039249,15.32452 -11.744095,28.08729 -26.720324,28.87728 -17.648967,0.93097 -32.262592,-13.84732 -32.97945,-31.1467 -0.82764,-19.97282 15.950553,-36.44126 35.573065,-37.08162 0.65045,-0.0212 1.301439,-0.0259 1.952125,-0.014"
       transform="matrix(-0.26458333,0,0,0.26458333,53.876845,-35.044517)" />
    <path
       style="display:inline;fill:#d6d6d6;fill-opacity:1;fill-rule:evenodd;stroke:#000000;stroke-width:1.47;stroke-linecap:butt;stroke-linejoin:miter;stroke-dasharray:none;stroke-dashoffset:0;stroke-opacity:1"
       d="M 37.952635,1.2418692 H 10.906198"
       id="path7096"
       inkscape:connector-type="polyline"
       inkscape:connector-curvature="0" />
    <path
       sodipodi:type="spiral"
       style="fill:#d6d6d6;fill-opacity:1;fill-rule:evenodd;stroke:#000000;stroke-width:5.55591;stroke-dasharray:none;stroke-dashoffset:0"
       id="path7025-0"
       sodipodi:cx="56.92511"
       sodipodi:cy="175.53711"
       sodipodi:expansion="1"
       sodipodi:revolution="2.2580562"
       sodipodi:radius="38.543659"
       sodipodi:argument="-72.218636"
       sodipodi:t0="0"
       d="m 56.92511,175.53711 c -2.565644,-0.0975 -1.13433,-3.50656 0.162101,-4.26427 3.513248,-2.05336 7.44038,1.24464 8.366438,4.58847 1.656501,5.98133 -3.334123,11.48699 -9.014842,12.46861 -8.336683,1.44057 -15.606731,-5.43505 -16.570775,-13.44121 -1.284919,-10.67097 7.537809,-19.75484 17.867583,-20.67295 12.998966,-1.15535 23.917034,9.64091 24.775112,22.29396 1.039249,15.32452 -11.744095,28.08729 -26.720324,28.87728 -17.648967,0.93097 -32.262592,-13.84732 -32.97945,-31.1467 -0.82764,-19.97282 15.950553,-36.44126 35.573065,-37.08162 0.65045,-0.0212 1.301439,-0.0259 1.952125,-0.014"
       transform="matrix(0.26458333,0,0,-0.26458333,-5.0608971,189.33125)" />
    <path
       sodipodi:type="spiral"
       style="fill:#d6d6d6;fill-opacity:1;fill-rule:evenodd;stroke:#000000;stroke-width:5.55591;stroke-dasharray:none;stroke-dashoffset:0"
       id="path7025-2-9"
       sodipodi:cx="56.92511"
       sodipodi:cy="175.53711"
       sodipodi:expansion="1"
       sodipodi:revolution="2.2580562"
       sodipodi:radius="38.543659"
       sodipodi:argument="-72.218636"
       sodipodi:t0="0"
       d="m 56.92511,175.53711 c -2.565644,-0.0975 -1.13433,-3.50656 0.162101,-4.26427 3.513248,-2.05336 7.44038,1.24464 8.366438,4.58847 1.656501,5.98133 -3.334123,11.48699 -9.014842,12.46861 -8.336683,1.44057 -15.606731,-5.43505 -16.570775,-13.44121 -1.284919,-10.67097 7.537809,-19.75484 17.867583,-20.67295 12.998966,-1.15535 23.917034,9.64091 24.775112,22.29396 1.039249,15.32452 -11.744095,28.08729 -26.720324,28.87728 -17.648967,0.93097 -32.262592,-13.84732 -32.97945,-31.1467 -0.82764,-19.97282 15.950553,-36.44126 35.573065,-37.08162 0.65045,-0.0212 1.301439,-0.0259 1.952125,-0.014"
       transform="matrix(-0.26458333,0,0,-0.26458333,53.849722,189.33137)" />
    <path
       style="display:inline;fill:#d6d6d6;fill-opacity:1;fill-rule:evenodd;stroke:#000000;stroke-width:1.47;stroke-linecap:butt;stroke-linejoin:miter;stroke-dasharray:none;stroke-dashoffset:0;stroke-opacity:1"
       d="M 37.947213,153.04496 H 10.900776"
       id="path7096-3"
       inkscape:connector-type="polyline"
       inkscape:connector-curvature="0" />
    <path
       style="fill:#d6d6d6;fill-opacity:1;stroke:#140000;stroke-width:1.47;stroke-dasharray:none;stroke-dashoffset:0;stroke-opacity:1"
       d="m 16.782077,143.5579 c 0,0 0,-129.283645 0,-129.283645"
       id="path8394"
       inkscape:path-effect="#path-effect8396"
       inkscape:original-d="M 16.782077,143.5579 V 14.274255" />
    <path
       style="fill:#d6d6d6;fill-opacity:1;stroke:#140000;stroke-width:1.47;stroke-dasharray:none;stroke-dashoffset:0;stroke-opacity:1"
       d="m 32.026778,141.48339 c 0,0 0,-129.283898 0,-129.283898"
       id="path8394-0"
       inkscape:path-effect="#path-effect8396-6"
       inkscape:original-d="M 32.026778,141.48339 V 12.199492" />
    <path
       sodipodi:type="spiral"
       style="fill:#d6d6d6;fill-opacity:1;fill-rule:evenodd;stroke:#000000;stroke-width:5.55591;stroke-dasharray:none;stroke-dashoffset:0"
       id="path7025-02"
       sodipodi:cx="56.92511"
       sodipodi:cy="175.53711"
       sodipodi:expansion="1"
       sodipodi:revolution="2.2580562"
       sodipodi:radius="38.543659"
       sodipodi:argument="-72.218636"
       sodipodi:t0="0"
       d="m 56.92511,175.53711 c -2.565644,-0.0975 -1.13433,-3.50656 0.162101,-4.26427 3.513248,-2.05336 7.44038,1.24464 8.366438,4.58847 1.656501,5.98133 -3.334123,11.48699 -9.014842,12.46861 -8.336683,1.44057 -15.606731,-5.43505 -16.570775,-13.44121 -1.284919,-10.67097 7.537809,-19.75484 17.867583,-20.67295 12.998966,-1.15535 23.917034,9.64091 24.775112,22.29396 1.039249,15.32452 -11.744095,28.08729 -26.720324,28.87728 -17.648967,0.93097 -32.262592,-13.84732 -32.97945,-31.1467 -0.82764,-19.97282 15.950553,-36.44126 35.573065,-37.08162 0.65045,-0.0212 1.301439,-0.0259 1.952125,-0.014"
       transform="matrix(0.26458333,0,0,0.26458333,201.27132,-35.044152)" />
    <path
       sodipodi:type="spiral"
       style="fill:#d6d6d6;fill-opacity:1;fill-rule:evenodd;stroke:#000000;stroke-width:5.55591;stroke-dasharray:none;stroke-dashoffset:0"
       id="path7025-2-3"
       sodipodi:cx="56.92511"
       sodipodi:cy="175.53711"
       sodipodi:expansion="1"
       sodipodi:revolution="2.2580562"
       sodipodi:radius="38.543659"
       sodipodi:argument="-72.218636"
       sodipodi:t0="0"
       d="m 56.92511,175.53711 c -2.565644,-0.0975 -1.13433,-3.50656 0.162101,-4.26427 3.513248,-2.05336 7.44038,1.24464 8.366438,4.58847 1.656501,5.98133 -3.334123,11.48699 -9.014842,12.46861 -8.336683,1.44057 -15.606731,-5.43505 -16.570775,-13.44121 -1.284919,-10.67097 7.537809,-19.75484 17.867583,-20.67295 12.998966,-1.15535 23.917034,9.64091 24.775112,22.29396 1.039249,15.32452 -11.744095,28.08729 -26.720324,28.87728 -17.648967,0.93097 -32.262592,-13.84732 -32.97945,-31.1467 -0.82764,-19.97282 15.950553,-36.44126 35.573065,-37.08162 0.65045,-0.0212 1.301439,-0.0259 1.952125,-0.014"
       transform="matrix(-0.26458333,0,0,0.26458333,260.20365,-35.044269)" />
    <path
       style="display:inline;fill:#d6d6d6;fill-opacity:1;fill-rule:evenodd;stroke:#000000;stroke-width:1.47;stroke-linecap:butt;stroke-linejoin:miter;stroke-dasharray:none;stroke-dashoffset:0;stroke-opacity:1"
       d="M 244.27945,1.2421112 H 217.23301"
       id="path7096-7"
       inkscape:connector-type="polyline"
       inkscape:connector-curvature="0" />
    <path
       sodipodi:type="spiral"
       style="fill:#d6d6d6;fill-opacity:1;fill-rule:evenodd;stroke:#000000;stroke-width:5.55591;stroke-dasharray:none;stroke-dashoffset:0"
       id="path7025-0-5"
       sodipodi:cx="56.92511"
       sodipodi:cy="175.53711"
       sodipodi:expansion="1"
       sodipodi:revolution="2.2580562"
       sodipodi:radius="38.543659"
       sodipodi:argument="-72.218636"
       sodipodi:t0="0"
       d="m 56.92511,175.53711 c -2.565644,-0.0975 -1.13433,-3.50656 0.162101,-4.26427 3.513248,-2.05336 7.44038,1.24464 8.366438,4.58847 1.656501,5.98133 -3.334123,11.48699 -9.014842,12.46861 -8.336683,1.44057 -15.606731,-5.43505 -16.570775,-13.44121 -1.284919,-10.67097 7.537809,-19.75484 17.867583,-20.67295 12.998966,-1.15535 23.917034,9.64091 24.775112,22.29396 1.039249,15.32452 -11.744095,28.08729 -26.720324,28.87728 -17.648967,0.93097 -32.262592,-13.84732 -32.97945,-31.1467 -0.82764,-19.97282 15.950553,-36.44126 35.573065,-37.08162 0.65045,-0.0212 1.301439,-0.0259 1.952125,-0.014"
       transform="matrix(0.26458333,0,0,-0.26458333,201.2659,189.33156)" />
    <path
       sodipodi:type="spiral"
       style="fill:#d6d6d6;fill-opacity:1;fill-rule:evenodd;stroke:#000000;stroke-width:5.55591;stroke-dasharray:none;stroke-dashoffset:0"
       id="path7025-2-9-9"
       sodipodi:cx="56.92511"
       sodipodi:cy="175.53711"
       sodipodi:expansion="1"
       sodipodi:revolution="2.2580562"
       sodipodi:radius="38.543659"
       sodipodi:argument="-72.218636"
       sodipodi:t0="0"
       d="m 56.92511,175.53711 c -2.565644,-0.0975 -1.13433,-3.50656 0.162101,-4.26427 3.513248,-2.05336 7.44038,1.24464 8.366438,4.58847 1.656501,5.98133 -3.334123,11.48699 -9.014842,12.46861 -8.336683,1.44057 -15.606731,-5.43505 -16.570775,-13.44121 -1.284919,-10.67097 7.537809,-19.75484 17.867583,-20.67295 12.998966,-1.15535 23.917034,9.64091 24.775112,22.29396 1.039249,15.32452 -11.744095,28.08729 -26.720324,28.87728 -17.648967,0.93097 -32.262592,-13.84732 -32.97945,-31.1467 -0.82764,-19.97282 15.950553,-36.44126 35.573065,-37.08162 0.65045,-0.0212 1.301439,-0.0259 1.952125,-0.014"
       transform="matrix(-0.26458333,0,0,-0.26458333,260.17653,189.33168)" />
    <path
       style="display:inline;fill:#d6d6d6;fill-opacity:1;fill-rule:evenodd;stroke:#000000;stroke-width:1.47;stroke-linecap:butt;stroke-linejoin:miter;stroke-dasharray:none;stroke-dashoffset:0;stroke-opacity:1"
       d="M 244.27402,153.04527 H 217.22759"
       id="path7096-3-2"
       inkscape:connector-type="polyline"
       inkscape:connector-curvature="0" />
    <path
       style="fill:#d6d6d6;fill-opacity:1;stroke:#140000;stroke-width:1.47;stroke-dasharray:none;stroke-dashoffset:0;stroke-opacity:1"
       d="m 223.10889,141.83592 c 0,0 0,-129.283707 0,-129.283707"
       id="path8394-2"
       inkscape:path-effect="#path-effect8396-9"
       inkscape:original-d="M 223.10889,141.83592 V 12.552213" />
    <path
       style="fill:#d6d6d6;fill-opacity:1;stroke:#140000;stroke-width:1.47;stroke-dasharray:none;stroke-dashoffset:0;stroke-opacity:1"
       d="m 238.35359,141.4837 c 0,0 0,-129.283962 0,-129.283962"
       id="path8394-0-8"
       inkscape:path-effect="#path-effect8396-6-2"
       inkscape:original-d="M 238.35359,141.4837 V 12.199738" />
    <path
       style="fill:#d6d6d6;fill-opacity:1;stroke:#140000;stroke-width:0.57;stroke-dasharray:none;stroke-dashoffset:0;stroke-opacity:1"
       d="m 224.70966,10.384245 c 0,0 10.84372,0 10.84372,0"
       id="path12047"
       inkscape:path-effect="#path-effect12049"
       inkscape:original-d="m 224.70966,10.384245 h 10.84372" />
    <path
       style="fill:#d6d6d6;fill-opacity:1;stroke:#140000;stroke-width:0.57;stroke-dasharray:none;stroke-dashoffset:0;stroke-opacity:1"
       d="m 225.57882,11.467706 c 0,0 9.3522,0 9.3522,0"
       id="path12047-3"
       inkscape:path-effect="#path-effect12049-9"
       inkscape:original-d="m 225.57882,11.467706 h 9.3522" />
    <path
       style="fill:#d6d6d6;fill-opacity:1;stroke:#140000;stroke-width:0.57;stroke-dasharray:none;stroke-dashoffset:0;stroke-opacity:1"
       d="m 226.74274,12.535235 c 0,0 7.13034,0 7.13034,0"
       id="path12047-3-9"
       inkscape:path-effect="#path-effect12049-9-1"
       inkscape:original-d="m 226.74274,12.535235 h 7.13034" />
    <path
       style="fill:#d6d6d6;fill-opacity:1;stroke:#140000;stroke-width:0.57;stroke-dasharray:none;stroke-dashoffset:0;stroke-opacity:1"
       d="m 223.34824,9.0295722 c 0,0 13.92632,0 13.92632,0"
       id="path12059"
       inkscape:path-effect="#path-effect12061"
       inkscape:original-d="m 223.34824,9.0295722 h 13.92632" />
    <path
       style="fill:#d6d6d6;fill-opacity:1;stroke:#140000;stroke-width:0.57;stroke-linecap:round;stroke-dasharray:none;stroke-dashoffset:0;stroke-opacity:1"
       d="m 18.902667,10.383907 c 0,0 10.84372,0 10.84372,0"
       id="path12047-8"
       inkscape:path-effect="#path-effect12049-49"
       inkscape:original-d="m 18.902667,10.383907 h 10.84372" />
    <path
       style="fill:#d6d6d6;fill-opacity:1;stroke:#140000;stroke-width:0.57;stroke-linecap:round;stroke-dasharray:none;stroke-dashoffset:0;stroke-opacity:1"
       d="m 19.771827,11.467368 c 0,0 9.3522,0 9.3522,0"
       id="path12047-3-92"
       inkscape:path-effect="#path-effect12049-9-2"
       inkscape:original-d="m 19.771827,11.467368 h 9.3522" />
    <path
       style="fill:#d6d6d6;fill-opacity:1;stroke:#140000;stroke-width:0.57;stroke-linecap:round;stroke-dasharray:none;stroke-dashoffset:0;stroke-opacity:1"
       d="m 20.935747,12.534897 c 0,0 7.13034,0 7.13034,0"
       id="path12047-3-9-6"
       inkscape:path-effect="#path-effect12049-9-1-0"
       inkscape:original-d="m 20.935747,12.534897 h 7.13034" />
    <path
       style="fill:#d6d6d6;fill-opacity:1;stroke:#140000;stroke-width:0.57;stroke-linecap:round;stroke-dasharray:none;stroke-dashoffset:0;stroke-opacity:1"
       d="m 17.541247,9.0292342 c 0,0 13.92632,0 13.92632,0"
       id="path12059-64"
       inkscape:path-effect="#path-effect12061-6"
       inkscape:original-d="m 17.541247,9.0292342 h 13.92632" />
    <path
       style="fill:#d6d6d6;fill-opacity:1;stroke:#140000;stroke-width:0.57;stroke-dasharray:none;stroke-dashoffset:0;stroke-opacity:1"
       d="m 225.56626,143.9738 c 0,0 9.3522,0 9.3522,0"
       id="path12047-3-0"
       inkscape:path-effect="#path-effect12049-9-7"
       inkscape:original-d="m 225.56626,143.9738 h 9.3522" />
    <path
       style="fill:#d6d6d6;fill-opacity:1;stroke:#140000;stroke-width:0.57;stroke-dasharray:none;stroke-dashoffset:0;stroke-opacity:1"
       d="m 226.73018,142.90626 c 0,0 7.13034,0 7.13034,0"
       id="path12047-3-9-3"
       inkscape:path-effect="#path-effect12049-9-1-8"
       inkscape:original-d="m 226.73018,142.90626 h 7.13034" />
    <path
       style="fill:#d6d6d6;fill-opacity:1;stroke:#140000;stroke-width:0.57;stroke-dasharray:none;stroke-dashoffset:0;stroke-opacity:1"
       d="m 223.33568,146.41195 c 0,0 13.92632,0 13.92632,0"
       id="path12059-6"
       inkscape:path-effect="#path-effect12061-4"
       inkscape:original-d="M 223.33568,146.41195 H 237.262" />
    <path
       style="fill:#d6d6d6;fill-opacity:1;stroke:#140000;stroke-width:0.57;stroke-dasharray:none;stroke-dashoffset:0;stroke-opacity:1"
       d="m 224.81897,145.1152 c 0,0 10.84372,0 10.84372,0"
       id="path12047-0"
       inkscape:path-effect="#path-effect12049-1"
       inkscape:original-d="m 224.81897,145.1152 h 10.84372" />
    <path
       style="fill:#d6d6d6;fill-opacity:1;stroke:#140000;stroke-width:0.57;stroke-linecap:round;stroke-dasharray:none;stroke-dashoffset:0;stroke-opacity:1"
       d="m 19.77169,143.97378 c 0,0 9.3522,0 9.3522,0"
       id="path12047-3-0-8"
       inkscape:path-effect="#path-effect12049-9-7-9"
       inkscape:original-d="m 19.77169,143.97378 h 9.3522" />
    <path
       style="fill:#d6d6d6;fill-opacity:1;stroke:#140000;stroke-width:0.57;stroke-linecap:round;stroke-dasharray:none;stroke-dashoffset:0;stroke-opacity:1"
       d="m 20.93561,142.90624 c 0,0 7.13034,0 7.13034,0"
       id="path12047-3-9-3-7"
       inkscape:path-effect="#path-effect12049-9-1-8-5"
       inkscape:original-d="m 20.93561,142.90624 h 7.13034" />
    <path
       style="fill:#d6d6d6;fill-opacity:1;stroke:#140000;stroke-width:0.57;stroke-linecap:round;stroke-dasharray:none;stroke-dashoffset:0;stroke-opacity:1"
       d="m 17.54111,146.41193 c 0,0 13.92632,0 13.92632,0"
       id="path12059-6-1"
       inkscape:path-effect="#path-effect12061-4-0"
       inkscape:original-d="M 17.54111,146.41193 H 31.46743" />
    <path
       style="fill:#d6d6d6;fill-opacity:1;stroke:#140000;stroke-width:0.57;stroke-linecap:round;stroke-dasharray:none;stroke-dashoffset:0;stroke-opacity:1"
       d="m 19.0244,145.11518 c 0,0 10.84372,0 10.84372,0"
       id="path12047-0-7"
       inkscape:path-effect="#path-effect12049-1-4"
       inkscape:original-d="M 19.0244,145.11518 H 29.86812" />
    <path
       style="fill:#4f1818;fill-opacity:1;stroke:#000000;stroke-width:0.87;stroke-linecap:round;stroke-dasharray:none;stroke-dashoffset:0;stroke-opacity:1"
       d="m 19.876011,32.036955 c 0,29.279842 0,58.559683 0,87.839525"
       id="path17270"
       inkscape:path-effect="#path-effect17272"
       inkscape:original-d="M 19.876011,32.036955 V 119.87648" />
    <path
       style="fill:#4f1818;fill-opacity:1;stroke:#000000;stroke-width:0.87;stroke-linecap:round;stroke-dasharray:none;stroke-dashoffset:0;stroke-opacity:1"
       d="m 24.40461,32.037235 c 0,29.279838 0,58.559677 0,87.839515"
       id="path17270-7"
       inkscape:path-effect="#path-effect17272-2"
       inkscape:original-d="M 24.40461,32.037235 V 119.87675" />
    <path
       style="fill:#4f1818;fill-opacity:1;stroke:#000000;stroke-width:0.87;stroke-linecap:round;stroke-dasharray:none;stroke-dashoffset:0;stroke-opacity:1"
       d="m 28.932366,32.037235 c 0,29.279838 0,58.559677 0,87.839515"
       id="path17270-7-2"
       inkscape:path-effect="#path-effect17272-2-2"
       inkscape:original-d="M 28.932366,32.037235 V 119.87675" />
    <path
       style="fill:#4f1818;fill-opacity:1;stroke:#000000;stroke-width:0.87;stroke-linecap:round;stroke-dasharray:none;stroke-dashoffset:0;stroke-opacity:1"
       d="m 226.21142,32.037235 c 0,29.279908 0,58.559817 0,87.839725"
       id="path17270-0"
       inkscape:path-effect="#path-effect17272-9"
       inkscape:original-d="M 226.21142,32.037235 V 119.87696" />
    <path
       style="fill:#4f1818;fill-opacity:1;stroke:#000000;stroke-width:0.87;stroke-linecap:round;stroke-dasharray:none;stroke-dashoffset:0;stroke-opacity:1"
       d="m 230.74002,32.037515 c 0,29.279905 0,58.55981 0,87.839715"
       id="path17270-7-9"
       inkscape:path-effect="#path-effect17272-2-4"
       inkscape:original-d="M 230.74002,32.037515 V 119.87723" />
    <path
       style="fill:#4f1818;fill-opacity:1;stroke:#000000;stroke-width:0.87;stroke-linecap:round;stroke-dasharray:none;stroke-dashoffset:0;stroke-opacity:1"
       d="m 235.26778,32.037515 c 0,29.279905 0,58.55981 0,87.839715"
       id="path17270-7-2-1"
       inkscape:path-effect="#path-effect17272-2-2-9"
       inkscape:original-d="M 235.26778,32.037515 V 119.87723" />
    <text
       xml:space="preserve"
       transform="matrix(0.29292767,0,0,0.44498332,-43.689366,-111.7969)"
       id="text358"
       style="font-size:64px;white-space:pre;shape-inside:url(#rect360);display:inline;fill:none;stroke:#000000;stroke-width:1.10792;stroke-linejoin:bevel"
       x="1565.3125"
       y="0"><tspan
         x="190.24805"
         y="664.24219"
         id="tspan1495"><tspan
           style="font-family:'DejaVu Serif';-inkscape-font-specification:'DejaVu Serif';text-align:justify;fill:#0f0707"
           id="tspan1493">Academy of Liberal Arts</tspan></tspan></text>
  </g>
</svg>
