<?xml version="1.0" encoding="UTF-8" standalone="no"?>
<!-- Created with Inkscape (http://www.inkscape.org/) -->

<svg
   width="50mm"
   height="50mm"
   viewBox="0 0 50 49.999962"
   version="1.1"
   id="svg5"
   inkscape:export-filename="bitmap.png"
   inkscape:export-xdpi="96"
   inkscape:export-ydpi="96"
   inkscape:version="1.2.2 (732a01da63, 2022-12-09, custom)"
   sodipodi:docname="user-logo.svg"
   xmlns:inkscape="http://www.inkscape.org/namespaces/inkscape"
   xmlns:sodipodi="http://sodipodi.sourceforge.net/DTD/sodipodi-0.dtd"
   xmlns="http://www.w3.org/2000/svg"
   xmlns:svg="http://www.w3.org/2000/svg">
  <sodipodi:namedview
     id="namedview7"
     pagecolor="#ffffff"
     bordercolor="#000000"
     borderopacity="0.25"
     inkscape:showpageshadow="2"
     inkscape:pageopacity="0.0"
     inkscape:pagecheckerboard="0"
     inkscape:deskcolor="#d1d1d1"
     inkscape:document-units="mm"
     showgrid="false"
     showguides="false"
     inkscape:lockguides="false"
     inkscape:zoom="4.2935905"
     inkscape:cx="66.145106"
     inkscape:cy="93.627932"
     inkscape:window-width="1920"
     inkscape:window-height="1031"
     inkscape:window-x="0"
     inkscape:window-y="25"
     inkscape:window-maximized="1"
     inkscape:current-layer="layer1" />
  <defs
     id="defs2">
    <clipPath
       clipPathUnits="userSpaceOnUse"
       id="clipPath11747">
      <path
         id="path11749"
         style="fill:#ff0000;fill-opacity:1;fill-rule:nonzero;stroke:none;stroke-width:0.264583"
         d="m 17.679024,11.777059 v 14.26993 h 14.269929 v -14.26993 z m 7.357691,10.701156 c 0.04587,2.12e-4 0.09211,7.94e-4 0.137976,0.0016 0.0907,0.0013 0.181308,0.0033 0.271818,0.0098 0.09126,0.0061 0.182158,0.01284 0.273368,0.01964 0.09791,0.0069 0.196209,0.01432 0.294039,0.02222 0.09084,0.0072 0.181525,0.01524 0.272335,0.02274 0.06441,0.0049 0.12896,0.0089 0.19327,0.01499 0.05469,0.0055 0.108969,0.01171 0.16278,0.02325 0.04569,0.0096 0.0915,0.02034 0.136427,0.03307 0.04176,0.0115 0.08381,0.02235 0.124539,0.03721 0.0021,8.21e-4 0.0041,0.0017 0.0062,0.0026 0.04985,0.0031 0.09954,0.007 0.149345,0.01137 0.08539,0.0073 0.170603,0.01896 0.255283,0.03204 0.08325,0.01341 0.166174,0.02858 0.249079,0.04392 0.08041,0.01486 0.160573,0.0302 0.240813,0.04599 0.07808,0.01587 0.156591,0.03141 0.234611,0.04754 0.07717,0.01565 0.153797,0.03274 0.230476,0.05064 0.07475,0.01789 0.149288,0.0358 0.223758,0.05478 0.07025,0.01829 0.14093,0.03613 0.211357,0.05374 0.0663,0.01631 0.132416,0.03274 0.198956,0.04806 0.06134,0.01423 0.122579,0.02839 0.183968,0.04237 0.04437,0.01 0.08893,0.01957 0.133326,0.02945 0.848445,0.189453 0.770408,0.540338 -0.07803,0.350883 -0.04489,-0.01002 -0.09001,-0.01986 -0.134874,-0.02997 -0.06167,-0.01405 -0.123394,-0.02812 -0.185002,-0.04237 -0.06872,-0.01583 -0.1372,-0.03275 -0.205674,-0.04961 -0.07094,-0.01774 -0.141618,-0.03583 -0.212389,-0.05426 -0.07216,-0.01839 -0.144632,-0.03588 -0.21704,-0.05323 -0.0737,-0.01724 -0.147524,-0.03352 -0.221692,-0.04858 -0.07689,-0.01591 -0.154056,-0.03085 -0.230994,-0.04651 -0.07891,-0.01554 -0.158118,-0.03088 -0.237197,-0.04547 -0.07944,-0.0147 -0.15848,-0.02947 -0.238228,-0.04238 -0.07696,-0.01195 -0.154405,-0.02224 -0.232026,-0.02894 -0.08042,-0.0071 -0.161166,-0.01272 -0.241845,-0.01602 -0.08344,-0.0038 -0.166574,-0.007 -0.250116,-0.0067 -0.09019,3.97e-4 -0.180623,0.0025 -0.270783,0.0047 -0.09875,0.0023 -0.197366,0.0045 -0.296106,0.0072 -0.101998,0.0028 -0.203898,0.0057 -0.305925,0.0072 -0.08933,9.52e-4 -0.17889,0.0018 -0.2682,-5.03e-4 -0.07414,-0.0016 -0.148079,-0.0036 -0.222209,-0.0057 -0.0763,-0.0022 -0.152647,-0.0044 -0.228927,-0.0072 -0.07628,-0.0028 -0.152666,-0.0059 -0.228926,-0.0093 -0.0693,-0.003 -0.13838,-0.0052 -0.20774,-0.0057 -0.06454,-0.0011 -0.129226,-0.0026 -0.193786,-0.0026 -0.06503,2e-4 -0.12983,9e-4 -0.19482,0.0031 -0.06776,0.0025 -0.135935,0.006 -0.203605,0.01033 -0.07008,0.0052 -0.140047,0.01165 -0.209807,0.02015 -0.07535,0.0092 -0.150736,0.01885 -0.225826,0.02997 -0.07593,0.01132 -0.151756,0.02293 -0.227376,0.03617 -0.06841,0.01243 -0.136542,0.02597 -0.204122,0.04237 -0.07042,0.01646 -0.140677,0.03429 -0.211357,0.04961 -0.06753,0.01297 -0.135268,0.02428 -0.203088,0.03566 -0.0787,0.01332 -0.157208,0.02579 -0.236678,0.03359 -0.07673,0.0072 -0.153537,0.01369 -0.230477,0.01809 -0.06552,0.0037 -0.131447,0.0069 -0.196887,0.01189 -0.04804,0.0039 -0.09585,0.0079 -0.143661,0.01395 -0.03188,0.0044 -0.06365,0.0095 -0.09508,0.01654 -0.02424,0.0061 -0.04838,0.01305 -0.07235,0.02015 -0.01445,0.0042 -0.02854,0.0089 -0.04289,0.01344 -0.07552,0.02388 -0.143966,0.04191 -0.207222,0.05633 0.497707,0.185964 0.338129,0.428182 -0.385506,0.264066 -0.0091,-0.0021 -0.01871,-0.0031 -0.02791,-0.0041 -0.02213,-0.0024 -0.044,-0.0041 -0.06615,-0.0062 -0.01199,-0.0012 -0.02418,-0.0023 -0.03617,-0.0036 -0.118376,-0.01253 -0.219643,-0.02996 -0.304374,-0.05064 -0.01574,0.008 -0.03156,0.01537 -0.03411,0.01654 -0.03259,0.01096 -0.06474,0.01484 -0.09715,0.01189 h -5.29e-4 c -0.0049,0.0023 -0.01027,0.0047 -0.01654,0.0067 -0.0093,0.0079 -0.01699,0.01123 -0.03824,0.02481 -0.03715,0.01617 -0.01888,0.0096 -0.05529,0.02015 -0.425956,0.123075 -0.224856,-0.04012 -0.03462,-0.194303 -0.105879,-0.08469 -0.03842,-0.171757 0.195854,-0.198954 -0.0069,-0.01155 -0.03499,-0.01319 -0.09508,5.29e-4 -0.0016,8.47e-4 -0.0031,0.0017 -0.0047,0.0026 0.0012,-8.47e-4 0.0024,-0.0017 0.0036,-0.0026 -0.03567,0.0082 -0.08227,0.02198 -0.141594,0.04134 -0.0038,0.0041 -0.0076,0.0078 -0.01137,0.01188 0.0025,-0.0035 0.0046,-0.0074 0.0072,-0.01085 -0.0011,3.44e-4 -0.002,7.14e-4 -0.0031,0.001 -0.02077,0.0068 -0.0098,0.0023 -0.03204,0.01292 -0.02447,0.01683 -0.02125,0.01307 -0.04134,0.03514 0.01729,-0.02306 0.03609,-0.04309 0.0615,-0.05891 0.03596,-0.01669 0.0424,-0.02144 0.05529,-0.02481 0.04689,-0.03425 0.08455,-0.04239 0.150378,-0.03566 0.0082,-0.0044 0.01645,-0.0086 0.02532,-0.01188 0.04657,-0.01635 0.08863,-0.02451 0.132292,-0.02274 0.02553,-0.03389 0.0732,-0.07058 0.141594,-0.108004 -0.02817,-0.06694 -0.04147,-0.115006 -0.0155,-0.116272 0.01747,-8.47e-4 0.05232,0.01983 0.111621,0.06925 0.087,-0.03745 0.195999,-0.07419 0.328145,-0.107487 0.03005,-0.0076 0.01477,-0.0039 0.04496,-0.01085 0.04528,-0.0097 0.0909,-0.01847 0.136425,-0.02687 0.04843,-0.0088 0.09683,-0.01738 0.145211,-0.02635 0.05299,-0.0094 0.105957,-0.01899 0.158647,-0.02997 0.05946,-0.01246 0.118697,-0.02557 0.177767,-0.03979 0.06231,-0.01504 0.124752,-0.02999 0.186552,-0.04703 0.06268,-0.01701 0.125285,-0.03488 0.187585,-0.05323 0.06557,-0.01928 0.130594,-0.03882 0.19637,-0.05736 0.07341,-0.021 0.147232,-0.04086 0.221692,-0.05788 0.08237,-0.01881 0.165391,-0.03666 0.249081,-0.04858 0.0868,-0.01227 0.173576,-0.02235 0.260966,-0.02945 0.09175,-0.0073 0.183445,-0.01314 0.275435,-0.01654 0.09741,-0.0041 0.195019,-0.0076 0.292489,-0.0098 0.09696,-0.0026 0.193998,-0.005 0.290938,-0.0083 0.09869,-0.0034 0.197446,-0.0072 0.296106,-0.01137 0.102918,-0.0044 0.205584,-0.0091 0.308508,-0.01344 0.09709,-0.0038 0.194285,-0.0069 0.291455,-0.0078 0.04587,-2.91e-4 0.09159,-7.41e-4 0.13746,-5.29e-4 z" />
    </clipPath>
    <clipPath
       clipPathUnits="userSpaceOnUse"
       id="clipPath12955">
      <path
         id="path12957"
         style="fill:#ff0000;fill-opacity:1;fill-rule:nonzero;stroke:none;stroke-width:0.264583"
         d="M 4.7857545,5.174878 V 45.44477 H 45.055647 V 5.174878 Z M 29.96148,22.330937 c 0.0024,-6.1e-5 0.0049,8e-6 0.0072,0 0.101245,-3.7e-4 0.208907,0.04608 0.261998,0.116272 0.0099,-0.0098 0.02043,-0.01504 0.03101,-0.01602 0.02059,-0.0019 0.04219,0.0117 0.0646,0.03411 0.0051,-3.97e-4 0.0098,-0.0015 0.015,-0.0016 0.158742,-0.0023 0.34953,0.107809 0.300757,0.256315 -0.0047,0.01447 -0.0098,0.02888 -0.01447,0.04341 0.0032,-0.0037 0.0068,-0.008 0.0098,-0.01292 -0.0024,0.0044 -0.005,0.009 -0.0062,0.01137 -0.0026,0.005 -0.0052,0.01 -0.0078,0.01499 -0.0019,0.0058 -0.0037,0.01176 -0.0057,0.01757 -0.01373,0.03863 -0.03038,0.07602 -0.04651,0.113688 -0.0092,0.02154 -0.01987,0.04242 -0.02997,0.06356 -2.01e-4,5.03e-4 -2.65e-4,10e-4 -5.3e-4,0.0016 -0.0055,0.0138 -0.01095,0.02765 -0.01654,0.04134 -0.01487,0.03511 -0.03008,0.06975 -0.04599,0.104386 -0.01749,0.03765 -0.03657,0.07483 -0.05581,0.111621 -0.01839,0.03395 -0.03636,0.06793 -0.05581,0.101286 -0.01868,0.0333 -0.03807,0.06586 -0.05839,0.09819 -0.02334,0.03685 -0.04797,0.07308 -0.07338,0.108521 -0.02551,0.03479 -0.05177,0.06926 -0.07751,0.10387 -0.02386,0.0331 -0.04875,0.06515 -0.07338,0.09767 -0.02683,0.03618 -0.05535,0.07089 -0.08423,0.105419 -0.0355,0.04311 -0.07403,0.08372 -0.114205,0.122474 -0.0461,0.04426 -0.09452,0.08601 -0.144692,0.125574 -0.04803,0.03813 -0.103431,0.06369 -0.159682,0.08682 -0.04412,0.01814 -0.08698,0.01359 -0.125574,-0.0057 -0.01677,0.01283 -0.03332,0.02598 -0.05013,0.03876 -0.05461,0.04177 -0.110648,0.0814 -0.167949,0.119373 -0.199485,0.132192 -0.473287,-0.292191 -0.269751,-0.418063 0.04763,-0.02945 0.09329,-0.06238 0.137975,-0.09612 0.0042,-0.0032 0.0082,-0.0066 0.01241,-0.0098 -0.02429,-6.61e-4 -0.04861,-8.2e-4 -0.07286,-0.0026 -0.07324,-0.0051 -0.146502,-0.01139 -0.218591,-0.02584 -0.07304,-0.01473 -0.145574,-0.03085 -0.218075,-0.04806 -0.07362,-0.01748 -0.147261,-0.03541 -0.220141,-0.05581 -0.07448,-0.02034 -0.149333,-0.0407 -0.223242,-0.06304 -0.07461,-0.02207 -0.14854,-0.04541 -0.223242,-0.06718 -0.07671,-0.02219 -0.15348,-0.04447 -0.230476,-0.06563 -0.07348,-0.01989 -0.147228,-0.03886 -0.221692,-0.05478 -0.07555,-0.0158 -0.151064,-0.03119 -0.227378,-0.04289 -0.07412,-0.01115 -0.148592,-0.02097 -0.223242,-0.02791 -0.06261,-0.0059 -0.125296,-0.01075 -0.188103,-0.01395 -0.0086,-4.76e-4 -0.0172,-0.0011 -0.02585,-0.0016 -0.05365,-0.0016 -0.107368,-4.5e-4 -0.160714,0.0062 -0.06128,0.0071 -0.122369,0.01465 -0.183451,0.02325 -0.06414,0.0092 -0.128374,0.01885 -0.192754,0.02635 -0.04559,0.0056 -0.09111,0.01344 -0.136943,0.01654 -0.07005,0.0047 -0.0781,-0.038 -0.06201,-0.09922 -0.06652,-0.0016 -0.132954,-0.0033 -0.199471,-0.0047 -0.325126,-0.0056 -0.649978,-0.0082 -0.975136,-0.01137 -0.275255,-0.0032 -0.550513,-0.0048 -0.825788,-0.0047 -0.230077,3.97e-4 -0.460324,5.82e-4 -0.690398,0.0021 -0.186911,0.0014 -0.37378,0.0036 -0.560689,0.0052 -0.157878,0.0016 -0.315992,0.003 -0.473872,0.0041 -0.133394,10e-4 -0.26665,0.0011 -0.399976,0.0057 -0.02968,0.0012 -0.05924,0.0024 -0.08888,0.0041 -0.0047,0.0036 -0.0093,0.0073 -0.01395,0.01085 -0.03953,0.02966 -0.07947,0.05888 -0.115755,0.0925 -0.0011,2.22e-4 -0.0023,0.0016 -0.0041,0.0031 l -5.29e-4,5.29e-4 c -0.0014,0.0032 -0.0029,0.0063 -0.0047,0.0098 -0.0093,0.01906 -0.02312,0.03593 -0.03462,0.05374 -0.01784,0.02181 -0.03805,0.03978 -0.05994,0.05529 0.162464,0.14608 -0.05739,0.263931 -0.619601,0.136425 -0.0091,-0.0021 -0.01871,-0.0031 -0.02791,-0.0041 -0.02213,-0.0024 -0.044,-0.0041 -0.06615,-0.0062 -0.01199,-0.0012 -0.02418,-0.0023 -0.03617,-0.0036 -0.08017,-0.0085 -0.149214,-0.02004 -0.213424,-0.03256 0.03784,0.02853 0.07557,0.05709 0.113689,0.08527 0.0355,0.02569 0.07138,0.05063 0.107487,0.07545 0.198012,0.136132 -0.08617,0.548183 -0.283704,0.411345 -0.0397,-0.02752 -0.07946,-0.05531 -0.118855,-0.0832 -0.0014,-0.001 -0.0027,-0.0021 -0.0041,-0.0031 -0.04074,0.01899 -0.08585,0.0219 -0.131258,10e-4 -0.0097,-0.0044 -0.01924,-0.009 -0.02894,-0.01344 -0.06496,-0.03061 -0.129524,-0.06181 -0.191203,-0.0987 -0.05926,-0.03651 -0.117261,-0.07483 -0.172082,-0.117822 -0.04569,-0.03588 -0.09124,-0.07254 -0.133325,-0.112654 -0.03732,-0.03555 -0.07462,-0.07145 -0.106454,-0.112139 -0.02875,-0.03618 -0.05553,-0.07389 -0.07906,-0.113688 -0.01855,-0.03209 -0.03739,-0.06387 -0.05374,-0.09715 -0.01568,-0.03092 -0.03134,-0.06188 -0.04548,-0.09353 -0.01271,-0.02804 -0.02486,-0.05625 -0.03772,-0.08423 -0.01247,-0.02867 -0.02492,-0.05765 -0.03617,-0.08682 -0.0093,-0.02472 -0.01944,-0.04924 -0.02894,-0.0739 -0.01036,-0.0278 -0.02078,-0.05533 -0.02945,-0.08372 -0.0099,-0.03197 -0.0198,-0.064 -0.02429,-0.09715 -0.0019,-0.0036 -0.0037,-0.0073 -0.0057,-0.01085 -0.08457,-0.14935 0.126547,-0.311594 0.293005,-0.316777 0.07028,-0.0022 0.132446,0.02393 0.16123,0.09043 0.0081,0.01862 0.01674,0.03665 0.02584,0.05478 0.01402,0.02872 0.02815,0.0577 0.04341,0.08578 0.01436,0.02616 0.02914,0.05207 0.04547,0.077 0.01654,0.02507 0.03519,0.04887 0.05323,0.07286 0.01151,0.01536 0.02403,0.02973 0.03617,0.04444 0.04231,-0.0093 0.09619,-0.01408 0.150379,-0.0186 -0.02165,-0.03108 -0.04335,-0.06203 -0.06356,-0.09405 -0.04022,-0.07036 -0.07076,-0.143103 -0.06356,-0.226343 0.02103,-0.242822 0.497745,0.299462 0.503845,0.05581 0.001,-0.03978 0.0032,-0.03605 -0.0031,-0.07028 -0.0011,-0.0059 -0.0038,-0.01115 -0.0047,-0.01705 0,-2.91e-4 0.0044,0.0078 0.0047,0.0083 0.02703,0.04294 0.05575,0.08479 0.08372,0.127124 0.04021,0.05981 0.07998,0.119834 0.119889,0.179834 0.0011,0.0017 0.002,0.0035 0.0031,0.0052 0.0064,-0.002 0.01273,-0.0042 0.01912,-0.0062 0.02693,-0.04769 0.05565,-0.09412 0.09302,-0.134875 0.01594,-0.0174 0.03369,-0.03319 0.05064,-0.04961 0.109721,-0.09445 0.219844,-0.129986 0.359151,-0.157096 0.08446,-0.01091 0.167053,-0.02776 0.248564,-0.05219 0.06864,-0.02185 0.136105,-0.04724 0.203605,-0.07235 0.0692,-0.02661 0.140035,-0.04897 0.210839,-0.0708 0.07134,-0.0221 0.144923,-0.03257 0.219109,-0.03307 0.0106,-7.1e-5 0.0209,5.6e-5 0.03152,5.29e-4 0.0845,0.01846 0.16182,0.0225 0.21239,0.119372 0.02338,0.04472 0.03229,0.09596 0.03514,0.147278 0.0575,-0.01595 0.11495,-0.03218 0.173116,-0.04547 0.08237,-0.01881 0.165389,-0.03666 0.249081,-0.04858 0.0868,-0.01227 0.173576,-0.02235 0.260966,-0.02945 0.09175,-0.0073 0.183445,-0.01314 0.275435,-0.01654 0.09741,-0.0041 0.195019,-0.0076 0.292489,-0.0098 0.09696,-0.0026 0.193996,-0.005 0.290938,-0.0083 0.09869,-0.0034 0.197446,-0.0072 0.296106,-0.01137 0.10292,-0.0044 0.205586,-0.0091 0.308508,-0.01344 0.09709,-0.0038 0.194285,-0.0069 0.291455,-0.0078 0.04587,-2.91e-4 0.09159,-6.88e-4 0.13746,-5.03e-4 0.04587,2.12e-4 0.09211,1.15e-4 0.137976,0.0016 0.0907,0.0013 0.181308,0.0033 0.271818,0.0098 0.09126,0.0061 0.182158,0.01284 0.273368,0.01964 0.09791,0.0069 0.196209,0.01432 0.294039,0.02222 0.09084,0.0072 0.181525,0.01524 0.272335,0.02274 0.06441,0.0049 0.128964,0.0089 0.193269,0.01499 0.04149,0.0042 0.08251,0.01056 0.123505,0.01757 0.02323,-0.09907 0.0848,-0.183649 0.177768,-0.185003 0.0071,-1.02e-4 0.01426,2.65e-4 0.0217,0.001 0.04957,0.006 0.09882,0.01262 0.148309,0.01912 0.07888,0.0103 0.157981,0.02045 0.236681,0.03204 0.07948,0.01196 0.158834,0.02469 0.238225,0.03721 0.07901,0.0122 0.158007,0.02512 0.237197,0.03617 0.07844,0.01194 0.156321,0.02487 0.234611,0.03772 0.08176,0.01348 0.163637,0.02744 0.244946,0.04341 0.08378,0.01674 0.167225,0.03468 0.250632,0.05323 0.08645,0.0189 0.172548,0.03898 0.257863,0.06253 0.07613,0.02198 0.152368,0.04468 0.227377,0.07028 0.06698,0.0226 0.133829,0.04589 0.199988,0.0708 0.05855,0.02184 0.116727,0.04374 0.173115,0.0708 0.0387,0.01745 0.07697,0.03598 0.115757,0.05323 0.03513,0.01516 0.06977,0.03164 0.100251,0.05478 0.0029,-0.0027 0.0058,-0.0055 0.0088,-0.0083 0.06589,-0.06065 0.131979,-0.120857 0.198437,-0.180867 0.04258,-0.03735 0.08584,-0.07405 0.129194,-0.110588 -0.08084,-0.07083 -0.126014,-0.172768 -0.06821,-0.259932 0.01341,-0.02025 0.02713,-0.04032 0.03927,-0.0615 v -5.29e-4 c 2.65e-4,-3.44e-4 7.94e-4,-2.15e-4 0.0016,-0.0016 0.04215,-0.06067 0.111506,-0.08803 0.185002,-0.08992 z m -7.987111,0.218074 c -0.0041,1.2e-5 -0.0067,0.0066 -0.0067,0.02997 0.0074,-0.0073 0.01487,-0.01441 0.02222,-0.0217 -0.0054,-0.0016 -0.01129,-0.0083 -0.0155,-0.0083 z m 8.669755,0.189653 c -1.38e-4,3.97e-4 -2.65e-4,0.0012 -0.0011,0.0026 -7.93e-4,0.0014 -0.0019,0.0023 -0.0026,0.0036 0.0016,-0.0029 0.0031,-0.0053 0.0036,-0.0062 z m -8.881628,0.599446 c -7.41e-4,0.0044 -10e-4,0.0075 -0.0015,0.01137 0.0011,-0.0037 0.0023,-0.01527 0.0015,-0.01137 z m -0.03617,0.09612 c -0.0026,0.0029 -0.0048,0.006 -0.0067,0.0083 0.0014,-0.0017 0.0027,-0.0027 0.0052,-0.0057 5.03e-4,-8.47e-4 0.001,-0.0018 0.0015,-0.0026 z" />
    </clipPath>
    <clipPath
       clipPathUnits="userSpaceOnUse"
       id="clipPath12965">
      <path
         id="path12967"
         style="fill:#ff0000;fill-opacity:1;fill-rule:nonzero;stroke:none;stroke-width:0.264583"
         d="M 9.8717489,22.588802 V 38.395071 H 40.039933 V 22.588802 h -9.418029 c 0.02614,0.03791 0.03634,0.0824 0.02013,0.131258 -0.0047,0.01447 -0.0098,0.02888 -0.01447,0.04341 0.0032,-0.0037 0.0068,-0.008 0.0098,-0.01292 -0.0024,0.0044 -0.005,0.009 -0.0062,0.01137 -0.0026,0.005 -0.0052,0.01 -0.0078,0.01499 -0.0019,0.0058 -0.0037,0.01176 -0.0057,0.01757 -0.01373,0.03863 -0.03038,0.07602 -0.04651,0.113688 -0.0092,0.02154 -0.01987,0.04242 -0.02997,0.06356 -2.04e-4,5.03e-4 -2.64e-4,0.001 -5.29e-4,0.0016 -0.0055,0.0138 -0.01095,0.02765 -0.01654,0.04134 -0.01487,0.03511 -0.03008,0.06975 -0.04599,0.104386 -0.01749,0.03765 -0.03657,0.07483 -0.05581,0.111621 -0.01839,0.03395 -0.03636,0.06793 -0.05581,0.101287 -0.01868,0.0333 -0.03807,0.06586 -0.05839,0.09819 -0.02334,0.03685 -0.04797,0.07308 -0.07338,0.108522 -0.0255,0.03479 -0.05177,0.06926 -0.07751,0.103869 -0.02387,0.0331 -0.04875,0.06515 -0.07338,0.09767 -0.02683,0.03618 -0.05535,0.07089 -0.08423,0.105419 -0.0355,0.04311 -0.07403,0.08372 -0.114205,0.122473 -0.0461,0.04426 -0.09452,0.08601 -0.144695,0.125574 -0.04803,0.03813 -0.103428,0.06369 -0.159679,0.08682 -0.04412,0.01814 -0.08698,0.01359 -0.125574,-0.0057 -0.01677,0.01283 -0.03332,0.02598 -0.05013,0.03876 -0.05461,0.04177 -0.110649,0.0814 -0.167947,0.119373 -0.199488,0.132192 -0.473289,-0.29219 -0.269753,-0.418063 0.04763,-0.02945 0.09329,-0.06238 0.137977,-0.09612 0.0042,-0.0032 0.0082,-0.0066 0.01241,-0.0098 -0.02429,-6.61e-4 -0.04861,-8.2e-4 -0.07286,-0.0026 -0.07324,-0.0051 -0.146503,-0.01139 -0.218594,-0.02584 -0.07304,-0.01473 -0.145571,-0.03085 -0.218072,-0.04806 -0.07362,-0.01748 -0.147262,-0.03541 -0.220144,-0.05581 -0.07448,-0.02034 -0.149328,-0.0407 -0.223239,-0.06304 -0.07461,-0.02207 -0.148543,-0.04541 -0.223242,-0.06718 -0.07671,-0.02219 -0.15348,-0.04447 -0.230479,-0.06563 -0.07348,-0.01989 -0.147233,-0.03886 -0.221692,-0.05478 -0.07555,-0.0158 -0.151064,-0.03119 -0.227375,-0.04289 -0.07412,-0.01115 -0.14859,-0.02097 -0.223245,-0.02791 -0.06261,-0.0059 -0.125288,-0.01075 -0.1881,-0.01395 -0.0095,-5.29e-4 -0.01897,-8.47e-4 -0.02842,-0.0016 -0.0528,-0.0015 -0.105633,-3.44e-4 -0.158129,0.0062 -0.06128,0.0071 -0.122372,0.01465 -0.183451,0.02325 -0.06414,0.0092 -0.128373,0.01885 -0.192753,0.02635 -0.04559,0.0056 -0.09111,0.01344 -0.136944,0.01654 -0.07005,0.0047 -0.0781,-0.038 -0.06201,-0.09922 -0.06652,-0.0016 -0.132954,-0.0033 -0.199471,-0.0047 -0.325125,-0.0056 -0.649978,-0.0082 -0.975134,-0.01137 -0.275256,-0.0032 -0.550513,-0.0048 -0.82579,-0.0047 -0.230076,3.97e-4 -0.460324,5.82e-4 -0.690397,0.0021 -0.18691,0.0014 -0.373781,0.0036 -0.560689,0.0052 -0.157879,0.0016 -0.315992,0.003 -0.473873,0.0041 -0.133393,0.001 -0.26665,0.0011 -0.399976,0.0057 -0.02968,0.0012 -0.05924,0.0024 -0.08888,0.0041 -0.0047,0.0036 -0.0093,0.0073 -0.01395,0.01085 -0.03953,0.02966 -0.07947,0.05888 -0.115754,0.0925 -0.0011,2.22e-4 -0.0023,0.0016 -0.0041,0.0031 l -5.29e-4,5.29e-4 c -0.0014,0.0032 -0.0029,0.0063 -0.0047,0.0098 -0.0093,0.01906 -0.02312,0.03593 -0.03462,0.05374 -0.01784,0.02181 -0.03805,0.03978 -0.05994,0.05529 0.162583,0.146024 -0.05733,0.263946 -0.6196,0.136425 -0.0091,-0.0021 -0.01871,-0.0031 -0.02791,-0.0041 -0.02213,-0.0024 -0.044,-0.0041 -0.06615,-0.0062 -0.01199,-0.0012 -0.02418,-0.0023 -0.03617,-0.0036 -0.08021,-0.0085 -0.149158,-0.02006 -0.213424,-0.03256 0.03784,0.02853 0.07557,0.05709 0.113689,0.08527 0.0355,0.02569 0.07138,0.05063 0.107487,0.07545 0.198012,0.136131 -0.08617,0.548183 -0.283704,0.411345 -0.03968,-0.02749 -0.07946,-0.05531 -0.118856,-0.0832 -0.0014,-10e-4 -0.0027,-0.0021 -0.0041,-0.0031 -0.04074,0.01899 -0.08585,0.0219 -0.131258,0.001 -0.0097,-0.0044 -0.01924,-0.009 -0.02894,-0.01344 -0.06496,-0.03061 -0.129523,-0.06181 -0.191203,-0.0987 -0.05926,-0.03651 -0.117262,-0.07483 -0.172082,-0.117822 -0.04569,-0.03588 -0.09124,-0.07254 -0.133325,-0.112655 -0.03732,-0.03555 -0.07462,-0.07145 -0.106454,-0.112138 -0.02875,-0.03618 -0.05553,-0.07389 -0.07906,-0.113688 -0.01855,-0.03209 -0.03739,-0.06387 -0.05374,-0.09715 -0.01568,-0.03092 -0.03134,-0.06188 -0.04548,-0.09353 -0.01271,-0.02804 -0.02486,-0.05625 -0.03772,-0.08423 -0.01247,-0.02867 -0.02492,-0.05765 -0.03617,-0.08682 -0.0093,-0.02472 -0.01944,-0.04924 -0.02894,-0.0739 -0.01036,-0.0278 -0.02078,-0.05533 -0.02945,-0.08372 -0.0099,-0.03197 -0.0198,-0.064 -0.02429,-0.09715 -0.0019,-0.0036 -0.0037,-0.0073 -0.0057,-0.01085 -0.08457,-0.149348 0.126547,-0.311594 0.293006,-0.316777 0.07028,-0.0022 0.132445,0.02393 0.16123,0.09043 0.0081,0.01862 0.01674,0.03665 0.02584,0.05478 0.01402,0.02872 0.02815,0.0577 0.04341,0.08578 0.01436,0.02616 0.02914,0.05207 0.04547,0.077 0.01654,0.02507 0.03519,0.04887 0.05323,0.07286 0.01151,0.01535 0.02404,0.02972 0.03617,0.04444 0.04231,-0.0093 0.09619,-0.01408 0.150378,-0.0186 -0.02165,-0.03108 -0.04335,-0.06203 -0.06356,-0.09405 -0.04022,-0.07036 -0.07076,-0.143103 -0.06356,-0.226342 0.02103,-0.242824 0.497745,0.299461 0.503845,0.05581 10e-4,-0.03978 0.0032,-0.03605 -0.0031,-0.07028 -0.0011,-0.0059 -0.0038,-0.01115 -0.0047,-0.01705 0,-2.91e-4 0.0044,0.0078 0.0047,0.0083 0.02703,0.04294 0.05575,0.08479 0.08372,0.127124 0.04021,0.05981 0.07998,0.119834 0.119889,0.179834 0.0011,0.0017 0.002,0.0035 0.0031,0.0052 0.0064,-0.002 0.01273,-0.0042 0.01912,-0.0062 0.02693,-0.04769 0.05565,-0.09412 0.09302,-0.134876 0.01594,-0.0174 0.03369,-0.03319 0.05064,-0.04961 0.109723,-0.09445 0.219841,-0.129987 0.359151,-0.157097 0.07196,-0.0093 0.142655,-0.02292 0.21239,-0.04186 z m 12.5785601,0 c 0.0062,0.02616 0.0093,0.0534 0.01085,0.08061 0.0575,-0.01595 0.114949,-0.03218 0.173116,-0.04547 0.05548,-0.01267 0.111354,-0.02486 0.167432,-0.03514 z m 5.586224,0 c 0.03534,0.0063 0.07075,0.01273 0.105934,0.01964 0.08378,0.01674 0.167233,0.03468 0.250632,0.05323 0.08645,0.0189 0.172543,0.03898 0.257866,0.06253 0.07613,0.02198 0.152365,0.04468 0.227377,0.07028 0.06698,0.0226 0.13384,0.04589 0.199985,0.0708 0.05855,0.02184 0.116719,0.04374 0.173117,0.0708 0.0387,0.01745 0.07697,0.03598 0.115756,0.05323 0.03513,0.01516 0.06977,0.03164 0.100253,0.05478 0.0029,-0.0027 0.0058,-0.0055 0.0088,-0.0083 0.06589,-0.06065 0.13198,-0.120857 0.198435,-0.180867 0.04258,-0.03735 0.08584,-0.07405 0.129194,-0.110588 -0.04981,-0.04364 -0.08598,-0.0991 -0.09302,-0.155546 z m 2.607591,0.149862 c -1.38e-4,3.97e-4 -2.65e-4,0.0012 -0.0011,0.0026 -7.93e-4,0.0014 -0.0019,0.0023 -0.0026,0.0036 0.0016,-0.0029 0.0031,-0.0053 0.0036,-0.0062 z m -8.881628,0.599446 c -7.41e-4,0.0044 -10e-4,0.0075 -0.0015,0.01137 0.0011,-0.0037 0.0023,-0.01527 0.0015,-0.01137 z m -0.03617,0.09612 c -0.0026,0.0029 -0.0048,0.006 -0.0067,0.0083 0.0014,-0.0017 0.0027,-0.0027 0.0052,-0.0057 5.03e-4,-8.47e-4 0.001,-0.0018 0.0015,-0.0026 z" />
    </clipPath>
    <clipPath
       clipPathUnits="userSpaceOnUse"
       id="clipPath12975">
      <path
         id="path12977"
         style="fill:#ff0000;fill-opacity:1;fill-rule:nonzero;stroke:none;stroke-width:0.264583"
         d="M 17.708997,12.124841 V 26.596827 H 32.18098 V 12.124841 Z M 29.96148,22.33042 v 5.29e-4 c 0.0024,-6.1e-5 0.0049,8e-6 0.0072,0 0.101446,-3.7e-4 0.209082,0.04584 0.261998,0.116272 0.0099,-0.0098 0.02043,-0.01504 0.03101,-0.01602 0.02059,-0.0019 0.04219,0.0117 0.0646,0.03411 0.005,-3.18e-4 0.0099,-0.0015 0.015,-0.0016 0.158744,-0.0023 0.349527,0.107809 0.300757,0.256315 -0.0047,0.01447 -0.0098,0.02888 -0.01447,0.04341 0.0032,-0.0037 0.0068,-0.008 0.0098,-0.01292 -0.0024,0.0044 -0.005,0.009 -0.0062,0.01137 -0.0026,0.005 -0.0052,0.01 -0.0078,0.01499 -0.0019,0.0058 -0.0037,0.01176 -0.0057,0.01757 -0.01373,0.03863 -0.03038,0.07602 -0.04651,0.113688 -0.0092,0.02154 -0.01987,0.04242 -0.02997,0.06356 -2.01e-4,5.03e-4 -2.65e-4,0.001 -5.3e-4,0.0016 -0.0055,0.0138 -0.01095,0.02765 -0.01654,0.04134 -0.01487,0.03511 -0.03008,0.06975 -0.04599,0.104386 -0.01749,0.03765 -0.03657,0.07483 -0.05581,0.111621 -0.01839,0.03395 -0.03636,0.06793 -0.05581,0.101286 -0.01868,0.0333 -0.03807,0.06586 -0.05839,0.09819 -0.02334,0.03685 -0.04797,0.07308 -0.07338,0.108521 -0.02551,0.03479 -0.05177,0.06926 -0.07751,0.10387 -0.02386,0.0331 -0.04875,0.06515 -0.07338,0.09767 -0.02683,0.03618 -0.05535,0.07089 -0.08423,0.10542 -0.0355,0.04311 -0.07403,0.08372 -0.114205,0.122473 -0.0461,0.04426 -0.09452,0.08601 -0.144692,0.125574 -0.04803,0.03813 -0.103431,0.06369 -0.159682,0.08682 -0.04412,0.01814 -0.08698,0.01359 -0.125574,-0.0057 -0.01675,0.01282 -0.03333,0.02599 -0.05013,0.03876 -0.05461,0.04177 -0.110648,0.0814 -0.167949,0.119373 -0.199485,0.132192 -0.47329,-0.29219 -0.269751,-0.418063 0.04763,-0.02945 0.09329,-0.06238 0.137975,-0.09612 0.0042,-0.0032 0.0082,-0.0066 0.01241,-0.0098 -0.02429,-6.62e-4 -0.04861,-8.21e-4 -0.07286,-0.0026 -0.07324,-0.0051 -0.1465,-0.01139 -0.218591,-0.02584 -0.07304,-0.01473 -0.145579,-0.03085 -0.218075,-0.04806 -0.07362,-0.01748 -0.147259,-0.03541 -0.220141,-0.05581 -0.07448,-0.02034 -0.149328,-0.0407 -0.223242,-0.06304 -0.07461,-0.02207 -0.148537,-0.04541 -0.223242,-0.06718 -0.07671,-0.02219 -0.153477,-0.04447 -0.230476,-0.06563 -0.07348,-0.01989 -0.147246,-0.03886 -0.221692,-0.05478 -0.07555,-0.0158 -0.151072,-0.03119 -0.227378,-0.04289 -0.07412,-0.01115 -0.148595,-0.02097 -0.223242,-0.02791 -0.03423,-0.0032 -0.06856,-0.0067 -0.102835,-0.0093 -7.94e-4,-4.2e-5 -0.0013,4.1e-5 -0.0021,0 -0.03717,-0.0023 -0.07444,-0.0042 -0.11162,-0.0062 -0.0528,-0.0015 -0.105635,-3.44e-4 -0.158131,0.0062 -0.06128,0.0071 -0.122372,0.01465 -0.183451,0.02325 -0.06414,0.0092 -0.128373,0.01885 -0.192753,0.02635 -0.04559,0.0056 -0.09111,0.01344 -0.136943,0.01654 -0.07025,0.0048 -0.07882,-0.03769 -0.06253,-0.09922 -0.06635,-0.0016 -0.132609,-0.0033 -0.198954,-0.0047 -0.325126,-0.0056 -0.649978,-0.0082 -0.975135,-0.01137 -0.275255,-0.0032 -0.550513,-0.0048 -0.825789,-0.0047 -0.230075,3.97e-4 -0.460326,5.82e-4 -0.690397,0.0021 -0.186912,0.0014 -0.373781,0.0036 -0.56069,0.0052 -0.157877,0.0016 -0.315991,0.003 -0.473872,0.0041 -0.133392,10e-4 -0.26665,0.0011 -0.399976,0.0057 -0.02968,0.0012 -0.05924,0.0024 -0.08888,0.0041 -0.0047,0.0036 -0.0093,0.0073 -0.01395,0.01085 -0.03953,0.02966 -0.07947,0.05888 -0.115755,0.0925 -0.0011,2.22e-4 -0.0023,0.0016 -0.0041,0.0031 l -5.3e-4,5.29e-4 c -0.0015,0.0032 -0.0029,0.0063 -0.0047,0.0098 -0.0093,0.01906 -0.02313,0.03593 -0.03462,0.05374 -0.04269,0.05219 -0.09888,0.08323 -0.160197,0.108004 -0.0453,0.01504 -0.0917,0.02501 -0.138493,0.03411 -0.0411,0.0079 -0.083,0.01215 -0.12454,0.01705 -0.03932,0.004 -0.07819,0.01032 -0.117306,0.01602 -0.06791,0.01308 -0.13648,0.0089 -0.204638,0.001 -0.05113,-0.0065 -0.102458,-0.01389 -0.153479,-0.02119 -0.0019,-2.65e-4 -0.0038,-1.06e-4 -0.0057,-5.3e-4 -0.0013,7.9e-5 -0.0028,-4.9e-5 -0.0041,0 -0.02919,0.0011 -0.0562,-0.0032 -0.08165,-0.01137 -0.01425,-0.0017 -0.02861,-0.0034 -0.04289,-0.0052 0.04109,0.03097 0.08212,0.06191 0.123507,0.0925 0.0355,0.02569 0.07138,0.05063 0.107487,0.07545 0.198009,0.136131 -0.08617,0.548183 -0.283704,0.411345 -0.03967,-0.02751 -0.07946,-0.05531 -0.118856,-0.0832 -0.0014,-0.001 -0.0027,-0.0021 -0.0041,-0.0031 -0.04074,0.01899 -0.08585,0.0219 -0.131258,10e-4 -0.0097,-0.0044 -0.01924,-0.009 -0.02894,-0.01344 -0.06492,-0.03064 -0.129479,-0.06184 -0.191159,-0.09873 -0.05926,-0.03651 -0.117262,-0.07483 -0.172082,-0.117822 -0.04569,-0.03588 -0.09124,-0.07254 -0.133325,-0.112655 -0.03732,-0.03555 -0.07462,-0.07145 -0.106454,-0.112138 -0.02875,-0.03618 -0.05553,-0.07389 -0.07906,-0.113688 -0.01855,-0.03209 -0.03739,-0.06387 -0.05374,-0.09715 -0.01568,-0.03092 -0.03134,-0.06188 -0.04548,-0.09353 -0.01271,-0.02804 -0.02486,-0.05625 -0.03772,-0.08423 -0.01247,-0.02867 -0.02492,-0.05765 -0.03617,-0.08682 -0.0093,-0.02472 -0.01944,-0.04924 -0.02894,-0.0739 -0.01036,-0.0278 -0.02078,-0.05533 -0.02945,-0.08372 -0.0099,-0.03197 -0.0198,-0.064 -0.02429,-0.09715 -0.0019,-0.0036 -0.0037,-0.0073 -0.0057,-0.01085 -0.08457,-0.149348 0.126546,-0.311594 0.293006,-0.316777 0.07028,-0.0022 0.132444,0.02393 0.16123,0.09043 0.0081,0.01862 0.01674,0.03665 0.02584,0.05478 0.01402,0.02872 0.02815,0.0577 0.04341,0.08578 0.01436,0.02616 0.02914,0.05207 0.04547,0.077 0.01654,0.02507 0.03519,0.04887 0.05323,0.07286 0.01151,0.01535 0.02404,0.02972 0.03617,0.04444 0.04231,-0.0093 0.09619,-0.01408 0.150379,-0.0186 -0.02165,-0.03108 -0.04335,-0.06202 -0.06356,-0.09405 -0.04022,-0.07036 -0.07076,-0.143103 -0.06356,-0.226343 0.02103,-0.242822 0.497744,0.299462 0.503845,0.05581 0.001,-0.03978 0.0032,-0.03605 -0.0031,-0.07028 -0.0011,-0.0059 -0.0038,-0.01115 -0.0047,-0.01705 0,-2.91e-4 0.0044,0.0078 0.0047,0.0083 0.02703,0.04294 0.05575,0.08479 0.08372,0.127125 0.04021,0.05981 0.07998,0.119834 0.119889,0.179833 0.0011,0.0017 0.002,0.0035 0.0031,0.0052 0.0064,-0.002 0.01273,-0.0042 0.01912,-0.0062 0.02694,-0.04771 0.05564,-0.09411 0.09302,-0.134875 0.01594,-0.0174 0.03369,-0.03319 0.05064,-0.04961 0.109722,-0.09445 0.219843,-0.129986 0.35915,-0.157096 0.08446,-0.01091 0.167054,-0.02776 0.248565,-0.05219 0.06864,-0.02185 0.136104,-0.04724 0.203604,-0.07235 0.0692,-0.02661 0.140034,-0.04897 0.210839,-0.0708 0.07134,-0.0221 0.144925,-0.03256 0.21911,-0.03307 0.0106,-7.1e-5 0.0209,5.8e-5 0.03152,5.29e-4 0.0845,0.01846 0.161821,0.0225 0.21239,0.119372 0.03326,0.06362 0.03737,0.140114 0.03617,0.211874 -3.97e-4,0.02465 -0.01441,0.05277 -0.03256,0.07958 0.135221,-3.44e-4 0.270433,-9.79e-4 0.405661,-10e-4 0.187448,-3.71e-4 0.374784,-7.15e-4 0.562238,-5.29e-4 0.230863,3.97e-4 0.461608,0.0026 0.692465,0.0036 0.276877,0.0019 0.55413,0.0047 0.830957,0.01034 0.326758,0.0054 0.653068,0.0111 0.979785,0.0186 0.197457,0.0053 0.394795,0.011 0.592211,0.0186 0.03767,-0.0049 0.07532,-0.01007 0.113173,-0.01447 0.01286,-0.0016 0.02585,-0.0025 0.03876,-0.0036 -0.107479,-0.129209 -0.04337,-0.440775 0.135909,-0.443384 0.0071,-1.03e-4 0.01426,2.65e-4 0.0217,10e-4 0.04957,0.006 0.09882,0.01262 0.148312,0.01912 0.07888,0.0103 0.157977,0.02045 0.236678,0.03204 0.07948,0.01196 0.158837,0.02469 0.238228,0.03721 0.07901,0.0122 0.158004,0.02512 0.237194,0.03617 0.07844,0.01194 0.156321,0.02487 0.234611,0.03772 0.08176,0.01348 0.163637,0.02744 0.244946,0.04341 0.08378,0.01674 0.167232,0.03468 0.250632,0.05323 0.08645,0.0189 0.172545,0.03898 0.257865,0.06253 0.07613,0.02198 0.152366,0.04468 0.227378,0.07028 0.06698,0.0226 0.133837,0.04589 0.199985,0.0708 0.05855,0.02184 0.116718,0.04374 0.173117,0.0708 0.0387,0.01745 0.07697,0.03598 0.115755,0.05323 0.03513,0.01516 0.06977,0.03164 0.100254,0.05478 0.0029,-0.0027 0.0058,-0.0055 0.0088,-0.0083 0.06589,-0.06065 0.131977,-0.120856 0.198435,-0.180867 0.04256,-0.03733 0.08535,-0.07459 0.128677,-0.111105 -0.0805,-0.07081 -0.125319,-0.172446 -0.0677,-0.259415 0.01341,-0.02025 0.02713,-0.04032 0.03927,-0.0615 v -5.29e-4 c 2.65e-4,-3.44e-4 7.94e-4,-7.41e-4 0.0016,-0.0021 0.04215,-0.06067 0.111514,-0.08803 0.185002,-0.08992 z m -7.987111,0.218591 c -0.0041,1.2e-5 -0.0067,0.0066 -0.0067,0.02997 0.0074,-0.0073 0.01487,-0.01441 0.02222,-0.0217 -0.0054,-0.0016 -0.01128,-0.0083 -0.0155,-0.0083 z m 8.669755,0.189653 c -1.38e-4,3.97e-4 -2.65e-4,0.0012 -0.0011,0.0026 -7.93e-4,0.0014 -0.0019,0.0023 -0.0026,0.0036 0.0016,-0.0029 0.0031,-0.0053 0.0036,-0.0062 z m -8.881628,0.599446 c -7.41e-4,0.0044 -10e-4,0.0075 -0.0015,0.01137 0.0011,-0.0037 0.0023,-0.01527 0.0015,-0.01137 z m -0.03617,0.09612 c -0.0026,0.0029 -0.0048,0.006 -0.0067,0.0083 0.0015,-0.0017 0.0027,-0.0027 0.0052,-0.0057 5.03e-4,-8.47e-4 0.001,-0.0017 0.0015,-0.0026 z" />
    </clipPath>
  </defs>
  <g
     inkscape:label="Layer 1"
     inkscape:groupmode="layer"
     id="layer1">
    <circle
       style="fill:none;stroke:#000000;stroke-width:0.47019;stroke-linecap:round;stroke-dasharray:none;stroke-opacity:1"
       id="path794"
       cy="25.309982"
       cx="24.920757"
       r="20"
       clip-path="url(#clipPath12955)"
       transform="matrix(1.0015346,0,0,1.0061692,-0.00755108,-0.0327571)" />
    <path
       style="fill:none;stroke:#e5e5e5;stroke-width:0.472;stroke-linecap:round;stroke-dasharray:none;stroke-opacity:1"
       id="path7506"
       sodipodi:type="arc"
       sodipodi:cx="24.955791"
       sodipodi:cy="38.259979"
       sodipodi:rx="14.949179"
       sodipodi:ry="15.536036"
       sodipodi:start="3.1415927"
       sodipodi:end="0"
       sodipodi:arc-type="slice"
       d="M 10.006613,38.259979 A 14.949179,15.536036 0 0 1 24.955791,22.723944 14.949179,15.536036 0 0 1 39.90497,38.259979 H 24.955791 Z"
       clip-path="url(#clipPath12965)" />
    <circle
       style="fill:none;stroke:#e5e5e5;stroke-width:0.472001;stroke-linecap:round;stroke-dasharray:none;stroke-opacity:1"
       id="path12561"
       cx="24.945219"
       cy="19.36076"
       r="7"
       clip-path="url(#clipPath12975)"
       transform="translate(-7.5178688e-6,-1.2328146)" />
    <path
       style="fill:#ececec;fill-opacity:1;stroke:#e5e5e5;stroke-width:1.78394;stroke-linecap:round;stroke-dasharray:none;stroke-opacity:1"
       d="M 36.264588,143.46045 C 29.556487,135.23365 24.408469,124.88277 21.789714,114.35651 20.367471,108.6397 19.7078,103.57518 19.597884,97.529097 19.505717,92.459292 19.817928,88.144341 20.613216,83.496552 23.873819,64.441082 34.203827,47.500293 49.61352,35.937247 58.095904,29.572279 67.93729,25.0532 78.264506,22.78096 c 12.074776,-2.656744 24.671854,-2.278336 36.452444,1.09501 10.35746,2.965833 19.88869,8.094262 28.1296,15.135574 1.91459,1.635891 5.26949,4.921838 7.03285,6.888327 8.49586,9.474488 14.55948,21.24557 17.32752,33.637291 1.3077,5.854128 1.801,10.348596 1.80862,16.47805 0.006,4.861118 -0.23638,7.936918 -0.98206,12.460438 -1.20937,7.33639 -3.40255,14.13508 -6.74316,20.90325 -2.61728,5.30268 -5.26334,9.47691 -8.8407,13.94641 l -1.00294,1.25308 -0.0692,-3.93149 c -0.0617,-3.50774 -0.10236,-4.13065 -0.37727,-5.77934 -1.85468,-11.12313 -6.26378,-20.84815 -13.33822,-29.41968 -1.50986,-1.82939 -5.7927,-6.078249 -7.67081,-7.609959 -4.53775,-3.7008 -9.94099,-6.90404 -15.06238,-8.929528 l -0.53398,-0.211186 -0.59095,0.789679 -0.59096,0.789678 1.38029,0.548453 c 0.75916,0.301649 2.26766,0.984858 3.35221,1.518243 5.91842,2.910689 10.60504,6.315449 15.3366,11.14182 8.89584,9.0741 14.51482,20.8343 16.12774,33.75437 0.22021,1.76408 0.46478,4.8634 0.46478,5.89013 v 0.51477 H 94.326649 38.778733 v -0.64778 c 0,-1.08561 0.228393,-3.96692 0.465582,-5.87357 2.391542,-19.22463 14.060976,-36.05562 30.83651,-44.475923 1.661384,-0.833914 4.452591,-2.073885 5.12576,-2.277076 0.259773,-0.07841 0.248441,-0.103345 -0.320245,-0.704647 -0.324251,-0.342847 -0.589547,-0.6789 -0.589547,-0.746783 0,-0.216996 -0.29898,-0.136229 -1.649123,0.445499 -4.026581,1.73491 -7.239571,3.520668 -10.578406,5.879407 -5.346299,3.776924 -10.200147,8.626983 -14.000045,13.989113 -5.085677,7.17652 -8.477211,15.27726 -10.214212,24.39683 -0.4492,2.35838 -0.508596,3.076 -0.57755,6.97794 l -0.07083,4.0084 z M 98.344265,95.615458 c 2.907115,-0.453402 5.628495,-1.330078 8.268135,-2.66354 2.77256,-1.400601 4.9655,-2.999577 7.1926,-5.244446 4.1073,-4.14008 6.69029,-9.383003 7.61095,-15.448601 0.2519,-1.659571 0.28306,-5.615113 0.0564,-7.161838 -0.49048,-3.347314 -1.34177,-6.133274 -2.69479,-8.819092 -4.17898,-8.295454 -11.976,-13.795787 -21.18583,-14.945325 -1.544299,-0.192755 -4.862458,-0.219255 -6.295925,-0.05028 -6.291115,0.741571 -11.897459,3.424131 -16.306542,7.802461 -4.39068,4.360055 -7.074005,9.829091 -7.909995,16.121804 -0.159042,1.197149 -0.158365,5.312254 0.001,6.586464 0.765995,6.12138 3.408384,11.578789 7.715233,15.934515 4.538033,4.589534 10.329082,7.367471 16.794409,8.05619 1.355094,0.144351 5.395025,0.04368 6.754254,-0.168308 z"
       id="path18569"
       transform="scale(0.26458333)" />
    <path
       style="fill:#ececec;fill-opacity:1;stroke:#e5e5e5;stroke-width:1.78394;stroke-linecap:round;stroke-dasharray:none;stroke-opacity:1"
       d="M 90.017901,93.602821 C 80.514774,91.906099 72.874303,85.222243 70.016999,76.106108 69.191651,73.47286 68.920316,71.556801 68.923444,68.383842 c 0.003,-3.028278 0.449318,-5.779015 1.340139,-8.259241 4.821754,-13.424747 19.454982,-20.348663 32.766427,-15.503891 9.57283,3.484086 16.13861,12.456936 16.61653,22.708285 0.42512,9.118902 -3.81872,17.412061 -11.52665,22.524917 -5.12996,3.402826 -12.03312,4.832466 -18.101989,3.748909 z"
       id="path18571"
       transform="scale(0.26458333)" />
    <path
       style="fill:#ececec;fill-opacity:1;stroke:#e5e5e5;stroke-width:1.78394;stroke-linecap:round;stroke-dasharray:none;stroke-opacity:1"
       d="m 86.640774,170.80473 c -13.925835,-1.42319 -27.537595,-7.00584 -38.777692,-15.90408 -2.629448,-2.08161 -9.666612,-8.90834 -9.666612,-9.37755 0,-0.25274 9.867108,-0.30664 56.130179,-0.30664 40.358501,0 56.130181,0.0713 56.130181,0.25389 0,0.39983 -5.47412,5.8935 -7.91878,7.94707 -5.15808,4.33288 -9.84265,7.3681 -15.95402,10.3369 -7.8888,3.83225 -16.22268,6.18944 -25.00377,7.07216 -2.822665,0.28375 -12.08208,0.27027 -14.939486,-0.0217 z"
       id="path18573"
       transform="scale(0.26458333)" />
    <path
       style="fill:#ffffff;fill-opacity:1;stroke:#e5e5e5;stroke-width:1.78394;stroke-linecap:round;stroke-dasharray:none;stroke-opacity:1"
       d="m 39.90028,140.46645 c 0.762256,-11.60428 5.289472,-23.17663 12.704508,-32.47495 2.120513,-2.65908 6.806869,-7.19237 9.601836,-9.288209 3.724944,-2.793194 7.936694,-5.207182 12.090169,-6.929548 0.832636,-0.345278 1.639695,-0.789709 1.793466,-0.987624 0.245587,-0.316093 0.389296,-0.272948 1.18195,0.354844 1.262885,1.000223 4.237596,2.731058 5.8227,3.387934 3.803507,1.576197 7.107353,2.243258 11.110508,2.243258 5.958123,0 11.529623,-1.711768 16.174413,-4.969369 l 1.4966,-1.049633 0.94891,0.35753 c 2.31048,0.87055 8.61453,4.136424 10.84738,5.619595 14.41452,9.574842 23.82805,25.970292 25.06383,43.653392 l 0.15869,2.27083 H 94.325899 39.756552 Z"
       id="path21200"
       transform="scale(0.26458333)" />
    <path
       style="fill:#ffffff;fill-opacity:1;stroke:#e5e5e5;stroke-width:1.78394;stroke-linecap:round;stroke-dasharray:none;stroke-opacity:1"
       d="M 90.69304,92.706478 C 81.500188,91.278431 73.989077,84.947058 71.06346,76.160035 69.789673,72.334246 69.542325,67.224444 70.430354,63.081136 c 1.347775,-6.288355 5.802393,-12.320593 11.604237,-15.713918 2.164399,-1.265892 5.267045,-2.423092 7.753804,-2.891952 3.054198,-0.575846 8.046385,-0.366363 11.044145,0.463435 12.89298,3.568855 20.57054,17.202577 16.99147,30.17326 -2.61125,9.463255 -10.99868,16.564372 -20.905812,17.699641 -2.515117,0.288209 -3.836805,0.26589 -6.225158,-0.105124 z"
       id="path21202"
       transform="scale(0.26458333)" />
    <circle
       style="fill:none;stroke:#000000;stroke-width:0.4;stroke-linejoin:bevel"
       id="path473"
       cx="25.030178"
       cy="25.464712"
       r="20" />
  </g>
</svg>
